<?xml version="1.0" encoding="utf-8"?>
<!-- Generator: Adobe Illustrator 27.3.1, SVG Export Plug-In . SVG Version: 6.00 Build 0)  -->
<svg version="1.1" xmlns="http://www.w3.org/2000/svg" xmlns:xlink="http://www.w3.org/1999/xlink" x="0px" y="0px"
	 viewBox="0 0 512 512" style="enable-background:new 0 0 512 512;" xml:space="preserve">
<style type="text/css">
	.st0{fill:none;}
	.st1{fill:#72778B;}
	.st2{fill:#68A4FF;}
	.st3{fill:#FFFFFF;}
</style>
<g id="Layer_2">
	
		<image style="overflow:visible;opacity:0.3;" width="980" height="980" xlink:href="657CDBAF.jpg"  transform="matrix(0.7022 0 0 0.7022 -88.0714 -88.0714)">
	</image>
</g>
<g id="Layer_3">
	<path class="st0" d="M256,440.8c-11.4,0-20.6,9.2-20.6,20.6c0,11.4,9.2,20.6,20.6,20.6s20.6-9.2,20.6-20.6
		C276.6,450,267.4,440.8,256,440.8z"/>
	<path class="st1" d="M351.6,13.6H160.7c-24.2,0-43.9,19.6-43.9,43.9v398.2c0,24.2,19.6,43.9,43.9,43.9h190.9
		c24.2,0,43.9-19.7,43.9-43.9V57.5C395.5,33.2,375.8,13.6,351.6,13.6z M217.4,31.4c1.5-1.5,3.5-2.4,5.8-2.4h65.6
		c4.5,0,8.2,3.7,8.2,8.2c0,2.3-0.9,4.3-2.4,5.8c-1.5,1.5-3.5,2.4-5.8,2.4h-65.6c-4.5,0-8.2-3.7-8.2-8.2
		C215,35,215.9,32.9,217.4,31.4z M256,481.9c-11.4,0-20.6-9.2-20.6-20.6c0-11.4,9.2-20.6,20.6-20.6s20.6,9.2,20.6,20.6
		C276.6,472.7,267.4,481.9,256,481.9z M373.6,416.7H138.4V60.9h235.3V416.7z"/>
	<rect x="138.4" y="60.9" class="st2" width="235.3" height="355.8"/>
	<circle class="st3" cx="256" cy="461.3" r="20.6"/>
	<g>
		<path class="st3" d="M209.4,311.2c-9.1,0-16.4,7.3-16.4,16.4c0,9.1,7.3,16.4,16.4,16.4c9.1,0,16.4-7.3,16.4-16.4
			C225.8,318.5,218.4,311.2,209.4,311.2z M209.4,332.8c-2.9,0-5.2-2.3-5.2-5.2c0-2.9,2.3-5.2,5.2-5.2c2.9,0,5.2,2.3,5.2,5.2
			C214.6,330.5,212.2,332.8,209.4,332.8z"/>
		<path class="st0" d="M335.5,206.3l-10.9,49.1c-0.2,0.9-1,1.6-1.9,1.7l-97.2,10.1c-1,0.1-2-0.5-2.3-1.5l-17.6-59.1
			c-0.4-1.4,0.6-2.8,2.1-2.8l125.6-0.1C334.8,203.7,335.8,205,335.5,206.3z"/>
		<path class="st0" d="M333.4,203.7l-125.6,0.1c-1.5,0-2.5,1.4-2.1,2.8l17.6,59.1c0.3,1,1.3,1.6,2.3,1.5l97.2-10.1
			c0.9-0.1,1.7-0.8,1.9-1.7l10.9-49.1C335.8,205,334.8,203.7,333.4,203.7z"/>
		<path class="st3" d="M212.7,283.3l12.2-1.4l17.9-2.1l90.7-10.7c1.7-0.2,3.1-1.4,3.5-3.1l17.2-71.6c0.6-2.6-1.3-5-4-5H200
			l-3.8-13.7l-1.6-5.9c-0.3-1-1.2-1.8-2.3-1.8H164c-3.4,0-6.2,2.8-6.2,6.2c0,1.7,0.7,3.3,1.8,4.4c1.1,1.1,2.7,1.8,4.4,1.8h20.6
			l1.5,8.9l23.4,82.4c-9.4,3.6-16.5,11.8-18.6,21.8c-0.4,2-0.6,4.1-0.6,6.2c0,1,0.1,2,0.1,3c0.2,1.8,1.8,3.2,3.6,3.2h136.8
			c3.7,0,6.8-3,6.8-6.8c0-1.6-0.6-3-1.7-4c-1-1-2.5-1.7-4-1.7h-129C204.6,288.9,208.2,285.4,212.7,283.3z M205.7,206.6
			c-0.4-1.4,0.6-2.8,2.1-2.8l125.6-0.1c1.4,0,2.4,1.3,2.1,2.6l-10.9,49.1c-0.2,0.9-1,1.6-1.9,1.7l-97.2,10.1c-1,0.1-2-0.5-2.3-1.5
			L205.7,206.6z"/>
		<path class="st3" d="M321.3,311.2c-9.1,0-16.4,7.3-16.4,16.4c0,9.1,7.3,16.4,16.4,16.4c9.1,0,16.4-7.3,16.4-16.4
			C337.7,318.5,330.4,311.2,321.3,311.2z M321.3,332.8c-2.9,0-5.2-2.3-5.2-5.2c0-2.9,2.3-5.2,5.2-5.2c2.9,0,5.2,2.3,5.2,5.2
			C326.5,330.5,324.2,332.8,321.3,332.8z"/>
	</g>
</g>
</svg>
