<svg xmlns="http://www.w3.org/2000/svg" xmlns:xlink="http://www.w3.org/1999/xlink" width="120" zoomAndPan="magnify" viewBox="0 0 90 89.999999" height="120" preserveAspectRatio="xMidYMid meet" version="1.0"><defs><filter x="0%" y="0%" width="100%" height="100%" id="0b6303c342"><feColorMatrix values="0 0 0 0 1 0 0 0 0 1 0 0 0 0 1 0 0 0 1 0" color-interpolation-filters="sRGB"/></filter><mask id="65b7c001d1"><g filter="url(#0b6303c342)"><rect x="-9" width="108" fill="#000000" y="-9" height="107.999999" fill-opacity="0.75"/></g></mask><clipPath id="477a1320fa"><rect x="0" width="90" y="0" height="90"/></clipPath></defs><g mask="url(#65b7c001d1)"><g transform="matrix(1, 0, 0, 1, 0, -0.00000000000000949)"><g clip-path="url(#477a1320fa)"><path fill="#0000ff" d="M 72 45 C 72 45.882812 71.957031 46.765625 71.871094 47.644531 C 71.785156 48.527344 71.652344 49.398438 71.480469 50.265625 C 71.308594 51.132812 71.09375 51.992188 70.835938 52.835938 C 70.582031 53.683594 70.28125 54.515625 69.945312 55.332031 C 69.605469 56.148438 69.230469 56.949219 68.8125 57.726562 C 68.394531 58.507812 67.941406 59.265625 67.449219 60 C 66.957031 60.734375 66.433594 61.445312 65.871094 62.128906 C 65.308594 62.8125 64.71875 63.464844 64.09375 64.09375 C 63.464844 64.71875 62.8125 65.308594 62.128906 65.871094 C 61.445312 66.433594 60.734375 66.957031 60 67.449219 C 59.265625 67.941406 58.507812 68.394531 57.726562 68.8125 C 56.949219 69.230469 56.148438 69.605469 55.332031 69.945312 C 54.515625 70.28125 53.683594 70.582031 52.835938 70.835938 C 51.992188 71.09375 51.132812 71.308594 50.265625 71.480469 C 49.398438 71.652344 48.527344 71.785156 47.644531 71.871094 C 46.765625 71.957031 45.882812 72 45 72 C 44.117188 72 43.234375 71.957031 42.355469 71.871094 C 41.472656 71.785156 40.601562 71.652344 39.734375 71.480469 C 38.867188 71.308594 38.007812 71.09375 37.164062 70.835938 C 36.316406 70.582031 35.484375 70.28125 34.667969 69.945312 C 33.851562 69.605469 33.050781 69.230469 32.273438 68.8125 C 31.492188 68.394531 30.734375 67.941406 30 67.449219 C 29.265625 66.957031 28.554688 66.433594 27.871094 65.871094 C 27.1875 65.308594 26.535156 64.71875 25.90625 64.09375 C 25.28125 63.464844 24.691406 62.8125 24.128906 62.128906 C 23.566406 61.445312 23.042969 60.734375 22.550781 60 C 22.058594 59.265625 21.605469 58.507812 21.1875 57.726562 C 20.769531 56.949219 20.394531 56.148438 20.054688 55.332031 C 19.71875 54.515625 19.417969 53.683594 19.164062 52.835938 C 18.90625 51.992188 18.691406 51.132812 18.519531 50.265625 C 18.347656 49.398438 18.214844 48.527344 18.128906 47.644531 C 18.042969 46.765625 18 45.882812 18 45 C 18 44.117188 18.042969 43.234375 18.128906 42.355469 C 18.214844 41.472656 18.347656 40.601562 18.519531 39.734375 C 18.691406 38.867188 18.90625 38.007812 19.164062 37.164062 C 19.417969 36.316406 19.71875 35.484375 20.054688 34.667969 C 20.394531 33.851562 20.769531 33.050781 21.1875 32.273438 C 21.605469 31.492188 22.058594 30.734375 22.550781 30 C 23.042969 29.265625 23.566406 28.554688 24.128906 27.871094 C 24.691406 27.1875 25.28125 26.535156 25.90625 25.90625 C 26.535156 25.28125 27.1875 24.691406 27.871094 24.128906 C 28.554688 23.566406 29.265625 23.042969 30 22.550781 C 30.734375 22.058594 31.492188 21.605469 32.273438 21.1875 C 33.050781 20.769531 33.851562 20.394531 34.667969 20.054688 C 35.484375 19.71875 36.316406 19.417969 37.164062 19.164062 C 38.007812 18.90625 38.867188 18.691406 39.734375 18.519531 C 40.601562 18.347656 41.472656 18.214844 42.355469 18.128906 C 43.234375 18.042969 44.117188 18 45 18 C 45.882812 18 46.765625 18.042969 47.644531 18.128906 C 48.527344 18.214844 49.398438 18.347656 50.265625 18.519531 C 51.132812 18.691406 51.992188 18.90625 52.835938 19.164062 C 53.683594 19.417969 54.515625 19.71875 55.332031 20.054688 C 56.148438 20.394531 56.949219 20.769531 57.726562 21.1875 C 58.507812 21.605469 59.265625 22.058594 60 22.550781 C 60.734375 23.042969 61.445312 23.566406 62.128906 24.128906 C 62.8125 24.691406 63.464844 25.28125 64.09375 25.90625 C 64.71875 26.535156 65.308594 27.1875 65.871094 27.871094 C 66.433594 28.554688 66.957031 29.265625 67.449219 30 C 67.941406 30.734375 68.394531 31.492188 68.8125 32.273438 C 69.230469 33.050781 69.605469 33.851562 69.945312 34.667969 C 70.28125 35.484375 70.582031 36.316406 70.835938 37.164062 C 71.09375 38.007812 71.308594 38.867188 71.480469 39.734375 C 71.652344 40.601562 71.785156 41.472656 71.871094 42.355469 C 71.957031 43.234375 72 44.117188 72 45 Z M 72 45 " fill-opacity="1" fill-rule="nonzero"/><path fill="#0000ff" d="M 76.5 45 C 76.5 46.03125 76.449219 47.0625 76.347656 48.085938 C 76.246094 49.113281 76.097656 50.132812 75.894531 51.144531 C 75.695312 52.15625 75.441406 53.15625 75.144531 54.144531 C 74.84375 55.132812 74.496094 56.101562 74.101562 57.054688 C 73.707031 58.007812 73.265625 58.9375 72.78125 59.847656 C 72.292969 60.757812 71.765625 61.644531 71.191406 62.5 C 70.617188 63.359375 70.003906 64.1875 69.351562 64.984375 C 68.695312 65.78125 68.003906 66.542969 67.273438 67.273438 C 66.542969 68.003906 65.78125 68.695312 64.984375 69.351562 C 64.1875 70.003906 63.359375 70.617188 62.5 71.191406 C 61.644531 71.765625 60.757812 72.292969 59.847656 72.78125 C 58.9375 73.265625 58.007812 73.707031 57.054688 74.101562 C 56.101562 74.496094 55.132812 74.84375 54.144531 75.144531 C 53.15625 75.441406 52.15625 75.695312 51.144531 75.894531 C 50.132812 76.097656 49.113281 76.246094 48.085938 76.347656 C 47.0625 76.449219 46.03125 76.5 45 76.5 C 43.96875 76.5 42.9375 76.449219 41.914062 76.347656 C 40.886719 76.246094 39.867188 76.097656 38.855469 75.894531 C 37.84375 75.695312 36.84375 75.441406 35.855469 75.144531 C 34.867188 74.84375 33.898438 74.496094 32.945312 74.101562 C 31.992188 73.707031 31.0625 73.265625 30.152344 72.78125 C 29.242188 72.292969 28.355469 71.765625 27.5 71.191406 C 26.640625 70.617188 25.8125 70.003906 25.015625 69.351562 C 24.21875 68.695312 23.457031 68.003906 22.726562 67.273438 C 21.996094 66.542969 21.304688 65.78125 20.648438 64.984375 C 19.996094 64.1875 19.382812 63.359375 18.808594 62.5 C 18.234375 61.644531 17.707031 60.757812 17.21875 59.847656 C 16.734375 58.9375 16.292969 58.007812 15.898438 57.054688 C 15.503906 56.101562 15.15625 55.132812 14.855469 54.144531 C 14.558594 53.15625 14.304688 52.15625 14.105469 51.144531 C 13.902344 50.132812 13.753906 49.113281 13.652344 48.085938 C 13.550781 47.0625 13.5 46.03125 13.5 45 C 13.5 43.96875 13.550781 42.9375 13.652344 41.914062 C 13.753906 40.886719 13.902344 39.867188 14.105469 38.855469 C 14.304688 37.84375 14.558594 36.84375 14.855469 35.855469 C 15.15625 34.867188 15.503906 33.898438 15.898438 32.945312 C 16.292969 31.992188 16.734375 31.0625 17.21875 30.152344 C 17.707031 29.242188 18.234375 28.355469 18.808594 27.5 C 19.382812 26.640625 19.996094 25.8125 20.648438 25.015625 C 21.304688 24.21875 21.996094 23.457031 22.726562 22.726562 C 23.457031 21.996094 24.21875 21.304688 25.015625 20.648438 C 25.8125 19.996094 26.640625 19.382812 27.5 18.808594 C 28.355469 18.234375 29.242188 17.707031 30.152344 17.21875 C 31.0625 16.734375 31.992188 16.292969 32.945312 15.898438 C 33.898438 15.503906 34.867188 15.15625 35.855469 14.855469 C 36.84375 14.558594 37.84375 14.304688 38.855469 14.105469 C 39.867188 13.902344 40.886719 13.753906 41.914062 13.652344 C 42.9375 13.550781 43.96875 13.5 45 13.5 C 46.03125 13.5 47.0625 13.550781 48.085938 13.652344 C 49.113281 13.753906 50.132812 13.902344 51.144531 14.105469 C 52.15625 14.304688 53.15625 14.558594 54.144531 14.855469 C 55.132812 15.15625 56.101562 15.503906 57.054688 15.898438 C 58.007812 16.292969 58.9375 16.734375 59.847656 17.21875 C 60.757812 17.707031 61.644531 18.234375 62.5 18.808594 C 63.359375 19.382812 64.1875 19.996094 64.984375 20.648438 C 65.78125 21.304688 66.542969 21.996094 67.273438 22.726562 C 68.003906 23.457031 68.695312 24.21875 69.351562 25.015625 C 70.003906 25.8125 70.617188 26.640625 71.191406 27.5 C 71.765625 28.355469 72.292969 29.242188 72.78125 30.152344 C 73.265625 31.0625 73.707031 31.992188 74.101562 32.945312 C 74.496094 33.898438 74.84375 34.867188 75.144531 35.855469 C 75.441406 36.84375 75.695312 37.84375 75.894531 38.855469 C 76.097656 39.867188 76.246094 40.886719 76.347656 41.914062 C 76.449219 42.9375 76.5 43.96875 76.5 45 Z M 76.5 45 " fill-opacity="0.8" fill-rule="nonzero"/><path fill="#0000ff" d="M 81 45 C 81 46.179688 80.941406 47.355469 80.828125 48.527344 C 80.710938 49.703125 80.539062 50.867188 80.308594 52.023438 C 80.078125 53.179688 79.792969 54.320312 79.449219 55.449219 C 79.109375 56.578125 78.710938 57.6875 78.257812 58.777344 C 77.808594 59.867188 77.304688 60.929688 76.75 61.96875 C 76.191406 63.011719 75.589844 64.019531 74.933594 65 C 74.277344 65.980469 73.578125 66.925781 72.828125 67.839844 C 72.082031 68.75 71.289062 69.621094 70.457031 70.457031 C 69.621094 71.289062 68.75 72.082031 67.839844 72.828125 C 66.925781 73.578125 65.980469 74.277344 65 74.933594 C 64.019531 75.589844 63.011719 76.191406 61.96875 76.75 C 60.929688 77.304688 59.867188 77.808594 58.777344 78.257812 C 57.6875 78.710938 56.578125 79.109375 55.449219 79.449219 C 54.320312 79.792969 53.179688 80.078125 52.023438 80.308594 C 50.867188 80.539062 49.703125 80.710938 48.527344 80.828125 C 47.355469 80.941406 46.179688 81 45 81 C 43.820312 81 42.644531 80.941406 41.472656 80.828125 C 40.296875 80.710938 39.132812 80.539062 37.976562 80.308594 C 36.820312 80.078125 35.679688 79.792969 34.550781 79.449219 C 33.421875 79.109375 32.3125 78.710938 31.222656 78.257812 C 30.132812 77.808594 29.070312 77.304688 28.03125 76.75 C 26.988281 76.191406 25.980469 75.589844 25 74.933594 C 24.019531 74.277344 23.074219 73.578125 22.160156 72.828125 C 21.25 72.082031 20.378906 71.289062 19.542969 70.457031 C 18.710938 69.621094 17.917969 68.75 17.171875 67.839844 C 16.421875 66.925781 15.722656 65.980469 15.066406 65 C 14.410156 64.019531 13.804688 63.011719 13.25 61.96875 C 12.695312 60.929688 12.191406 59.867188 11.742188 58.777344 C 11.289062 57.6875 10.890625 56.578125 10.550781 55.449219 C 10.207031 54.320312 9.921875 53.179688 9.691406 52.023438 C 9.460938 50.867188 9.289062 49.703125 9.171875 48.527344 C 9.058594 47.355469 9 46.179688 9 45 C 9 43.820312 9.058594 42.644531 9.171875 41.472656 C 9.289062 40.296875 9.460938 39.132812 9.691406 37.976562 C 9.921875 36.820312 10.207031 35.679688 10.550781 34.550781 C 10.890625 33.421875 11.289062 32.3125 11.742188 31.222656 C 12.191406 30.132812 12.695312 29.070312 13.25 28.03125 C 13.804688 26.988281 14.410156 25.980469 15.066406 25 C 15.722656 24.019531 16.421875 23.074219 17.171875 22.160156 C 17.917969 21.25 18.710938 20.378906 19.542969 19.542969 C 20.378906 18.710938 21.25 17.917969 22.160156 17.171875 C 23.074219 16.421875 24.019531 15.722656 25 15.066406 C 25.980469 14.410156 26.988281 13.804688 28.03125 13.25 C 29.070312 12.695312 30.132812 12.191406 31.222656 11.742188 C 32.3125 11.289062 33.421875 10.890625 34.550781 10.550781 C 35.679688 10.207031 36.820312 9.921875 37.976562 9.691406 C 39.132812 9.460938 40.296875 9.289062 41.472656 9.171875 C 42.644531 9.058594 43.820312 9 45 9 C 46.179688 9 47.355469 9.058594 48.527344 9.171875 C 49.703125 9.289062 50.867188 9.460938 52.023438 9.691406 C 53.179688 9.921875 54.320312 10.207031 55.449219 10.550781 C 56.578125 10.890625 57.6875 11.289062 58.777344 11.742188 C 59.867188 12.191406 60.929688 12.695312 61.96875 13.25 C 63.011719 13.804688 64.019531 14.410156 65 15.066406 C 65.980469 15.722656 66.925781 16.421875 67.839844 17.171875 C 68.75 17.917969 69.621094 18.710938 70.457031 19.542969 C 71.289062 20.378906 72.082031 21.25 72.828125 22.160156 C 73.578125 23.074219 74.277344 24.019531 74.933594 25 C 75.589844 25.980469 76.191406 26.988281 76.75 28.03125 C 77.304688 29.070312 77.808594 30.132812 78.257812 31.222656 C 78.710938 32.3125 79.109375 33.421875 79.449219 34.550781 C 79.792969 35.679688 80.078125 36.820312 80.308594 37.976562 C 80.539062 39.132812 80.710938 40.296875 80.828125 41.472656 C 80.941406 42.644531 81 43.820312 81 45 Z M 81 45 " fill-opacity="0.5" fill-rule="nonzero"/><path fill="#0000ff" d="M 85.5 45 C 85.5 46.328125 85.433594 47.648438 85.304688 48.96875 C 85.175781 50.289062 84.980469 51.601562 84.722656 52.902344 C 84.464844 54.203125 84.140625 55.488281 83.757812 56.757812 C 83.371094 58.027344 82.925781 59.273438 82.417969 60.5 C 81.910156 61.722656 81.34375 62.921875 80.71875 64.089844 C 80.09375 65.261719 79.410156 66.398438 78.675781 67.5 C 77.9375 68.601562 77.148438 69.667969 76.308594 70.691406 C 75.464844 71.71875 74.574219 72.699219 73.636719 73.636719 C 72.699219 74.574219 71.71875 75.464844 70.691406 76.308594 C 69.667969 77.148438 68.601562 77.9375 67.5 78.675781 C 66.398438 79.410156 65.261719 80.09375 64.089844 80.71875 C 62.921875 81.34375 61.722656 81.910156 60.5 82.417969 C 59.273438 82.925781 58.027344 83.371094 56.757812 83.757812 C 55.488281 84.140625 54.203125 84.464844 52.902344 84.722656 C 51.601562 84.980469 50.289062 85.175781 48.96875 85.304688 C 47.648438 85.433594 46.328125 85.5 45 85.5 C 43.671875 85.5 42.351562 85.433594 41.03125 85.304688 C 39.710938 85.175781 38.398438 84.980469 37.097656 84.722656 C 35.796875 84.464844 34.511719 84.140625 33.242188 83.757812 C 31.972656 83.371094 30.726562 82.925781 29.5 82.417969 C 28.277344 81.910156 27.078125 81.34375 25.910156 80.71875 C 24.738281 80.09375 23.601562 79.410156 22.5 78.675781 C 21.398438 77.9375 20.332031 77.148438 19.308594 76.308594 C 18.28125 75.464844 17.300781 74.574219 16.363281 73.636719 C 15.425781 72.699219 14.535156 71.71875 13.691406 70.691406 C 12.851562 69.667969 12.0625 68.601562 11.324219 67.5 C 10.589844 66.398438 9.90625 65.261719 9.28125 64.089844 C 8.65625 62.921875 8.089844 61.722656 7.582031 60.5 C 7.074219 59.273438 6.628906 58.027344 6.242188 56.757812 C 5.859375 55.488281 5.535156 54.203125 5.277344 52.902344 C 5.019531 51.601562 4.824219 50.289062 4.695312 48.96875 C 4.566406 47.648438 4.5 46.328125 4.5 45 C 4.5 43.671875 4.566406 42.351562 4.695312 41.03125 C 4.824219 39.710938 5.019531 38.398438 5.277344 37.097656 C 5.535156 35.796875 5.859375 34.511719 6.242188 33.242188 C 6.628906 31.972656 7.074219 30.726562 7.582031 29.5 C 8.089844 28.277344 8.65625 27.078125 9.28125 25.910156 C 9.90625 24.738281 10.589844 23.601562 11.324219 22.5 C 12.0625 21.398438 12.851562 20.332031 13.691406 19.308594 C 14.535156 18.28125 15.425781 17.300781 16.363281 16.363281 C 17.300781 15.425781 18.28125 14.535156 19.308594 13.691406 C 20.332031 12.851562 21.398438 12.0625 22.5 11.324219 C 23.601562 10.589844 24.738281 9.90625 25.910156 9.28125 C 27.078125 8.65625 28.277344 8.089844 29.5 7.582031 C 30.726562 7.074219 31.972656 6.628906 33.242188 6.242188 C 34.511719 5.859375 35.796875 5.535156 37.097656 5.277344 C 38.398438 5.019531 39.710938 4.824219 41.03125 4.695312 C 42.351562 4.566406 43.671875 4.5 45 4.5 C 46.328125 4.5 47.648438 4.566406 48.96875 4.695312 C 50.289062 4.824219 51.601562 5.019531 52.902344 5.277344 C 54.203125 5.535156 55.488281 5.859375 56.757812 6.242188 C 58.027344 6.628906 59.273438 7.074219 60.5 7.582031 C 61.722656 8.089844 62.921875 8.65625 64.089844 9.28125 C 65.261719 9.90625 66.398438 10.589844 67.5 11.324219 C 68.601562 12.0625 69.667969 12.851562 70.691406 13.691406 C 71.71875 14.535156 72.699219 15.425781 73.636719 16.363281 C 74.574219 17.300781 75.464844 18.28125 76.308594 19.308594 C 77.148438 20.332031 77.9375 21.398438 78.675781 22.5 C 79.410156 23.601562 80.09375 24.738281 80.71875 25.910156 C 81.34375 27.078125 81.910156 28.277344 82.417969 29.5 C 82.925781 30.726562 83.371094 31.972656 83.757812 33.242188 C 84.140625 34.511719 84.464844 35.796875 84.722656 37.097656 C 84.980469 38.398438 85.175781 39.710938 85.304688 41.03125 C 85.433594 42.351562 85.5 43.671875 85.5 45 Z M 85.5 45 " fill-opacity="0.2" fill-rule="nonzero"/><path fill="#0000ff" d="M 90 45 C 90 46.472656 89.929688 47.945312 89.785156 49.410156 C 89.640625 50.878906 89.421875 52.332031 89.136719 53.777344 C 88.847656 55.222656 88.488281 56.652344 88.0625 58.0625 C 87.632812 59.472656 87.136719 60.859375 86.574219 62.222656 C 86.011719 63.582031 85.382812 64.914062 84.6875 66.210938 C 83.992188 67.511719 83.234375 68.773438 82.417969 70 C 81.597656 71.226562 80.71875 72.410156 79.785156 73.546875 C 78.851562 74.6875 77.863281 75.777344 76.820312 76.820312 C 75.777344 77.863281 74.6875 78.851562 73.546875 79.785156 C 72.410156 80.71875 71.226562 81.597656 70 82.417969 C 68.773438 83.234375 67.511719 83.992188 66.210938 84.6875 C 64.914062 85.382812 63.582031 86.011719 62.222656 86.574219 C 60.859375 87.136719 59.472656 87.632812 58.0625 88.0625 C 56.652344 88.488281 55.222656 88.847656 53.777344 89.136719 C 52.332031 89.421875 50.878906 89.640625 49.410156 89.785156 C 47.945312 89.929688 46.472656 90 45 90 C 43.527344 90 42.054688 89.929688 40.589844 89.785156 C 39.121094 89.640625 37.667969 89.421875 36.222656 89.136719 C 34.777344 88.847656 33.347656 88.488281 31.9375 88.0625 C 30.527344 87.632812 29.140625 87.136719 27.777344 86.574219 C 26.417969 86.011719 25.085938 85.382812 23.789062 84.6875 C 22.488281 83.992188 21.226562 83.234375 20 82.417969 C 18.773438 81.597656 17.589844 80.71875 16.453125 79.785156 C 15.3125 78.851562 14.222656 77.863281 13.179688 76.820312 C 12.136719 75.777344 11.148438 74.6875 10.214844 73.546875 C 9.28125 72.410156 8.402344 71.226562 7.582031 70 C 6.765625 68.773438 6.007812 67.511719 5.3125 66.210938 C 4.617188 64.914062 3.988281 63.582031 3.425781 62.222656 C 2.863281 60.859375 2.367188 59.472656 1.9375 58.0625 C 1.511719 56.652344 1.152344 55.222656 0.863281 53.777344 C 0.578125 52.332031 0.359375 50.878906 0.214844 49.410156 C 0.0703125 47.945312 0 46.472656 0 45 C 0 43.527344 0.0703125 42.054688 0.214844 40.589844 C 0.359375 39.121094 0.578125 37.667969 0.863281 36.222656 C 1.152344 34.777344 1.511719 33.347656 1.9375 31.9375 C 2.367188 30.527344 2.863281 29.140625 3.425781 27.777344 C 3.988281 26.417969 4.617188 25.085938 5.3125 23.789062 C 6.007812 22.488281 6.765625 21.226562 7.582031 20 C 8.402344 18.773438 9.28125 17.589844 10.214844 16.453125 C 11.148438 15.3125 12.136719 14.222656 13.179688 13.179688 C 14.222656 12.136719 15.3125 11.148438 16.453125 10.214844 C 17.589844 9.28125 18.773438 8.402344 20 7.582031 C 21.226562 6.765625 22.488281 6.007812 23.789062 5.3125 C 25.085938 4.617188 26.417969 3.988281 27.777344 3.425781 C 29.140625 2.863281 30.527344 2.367188 31.9375 1.9375 C 33.347656 1.511719 34.777344 1.152344 36.222656 0.863281 C 37.667969 0.578125 39.121094 0.359375 40.589844 0.214844 C 42.054688 0.0703125 43.527344 0 45 0 C 46.472656 0 47.945312 0.0703125 49.410156 0.214844 C 50.878906 0.359375 52.332031 0.578125 53.777344 0.863281 C 55.222656 1.152344 56.652344 1.511719 58.0625 1.9375 C 59.472656 2.367188 60.859375 2.863281 62.222656 3.425781 C 63.582031 3.988281 64.914062 4.617188 66.210938 5.3125 C 67.511719 6.007812 68.773438 6.765625 70 7.582031 C 71.226562 8.402344 72.410156 9.28125 73.546875 10.214844 C 74.6875 11.148438 75.777344 12.136719 76.820312 13.179688 C 77.863281 14.222656 78.851562 15.3125 79.785156 16.453125 C 80.71875 17.589844 81.597656 18.773438 82.417969 20 C 83.234375 21.226562 83.992188 22.488281 84.6875 23.789062 C 85.382812 25.085938 86.011719 26.417969 86.574219 27.777344 C 87.136719 29.140625 87.632812 30.527344 88.0625 31.9375 C 88.488281 33.347656 88.847656 34.777344 89.136719 36.222656 C 89.421875 37.667969 89.640625 39.121094 89.785156 40.589844 C 89.929688 42.054688 90 43.527344 90 45 Z M 90 45 " fill-opacity="0.2" fill-rule="nonzero"/></g></g></g></svg>