<?xml version="1.0" encoding="utf-8"?>
<!-- Generator: Adobe Illustrator 27.3.1, SVG Export Plug-In . SVG Version: 6.00 Build 0)  -->
<svg version="1.1" id="Layer_2" xmlns="http://www.w3.org/2000/svg" xmlns:xlink="http://www.w3.org/1999/xlink" x="0px" y="0px"
	 viewBox="0 0 512 512" style="enable-background:new 0 0 512 512;" xml:space="preserve">
<style type="text/css">
	.st0{fill:#68A4FF;}
	.st1{fill:#72778B;}
	.st2{fill:#FFFFFF;}
	.st3{fill:#95A2BA;}
	.st4{fill:#F2F2F2;}
	.st5{fill:none;}
</style>
<path class="st0" d="M286.7,289.8c0.1,7.3-5.8,13.2-13.1,13.2H32.8c-7.2,0-13.1-5.8-13.1-13l-1.1-172.4c0-7.3,5.8-13.2,13.1-13.2
	h240.8c7.2,0,13.1,5.8,13.1,13L286.7,289.8z"/>
<path class="st1" d="M74.1,320.2c-8.2,9.5-13.7,21.5-15.1,34.7H21.3c-2.1,0-3.9-1.7-3.9-3.9v-27c0-2.1,1.7-3.9,3.9-3.9H74.1z"/>
<path class="st1" d="M497.4,320.2h-6.4v-96.1c0-2.2-0.6-4.3-1.9-6.1l-32.6-48.4l-4.9-7.2L435.1,138c-2-3-5.4-4.8-9.1-4.8H313.8
	c-6,0-10.9,4.9-10.9,10.9v176.1H170.1c8.2,9.5,13.7,21.5,15.1,34.7h150.8c1.4-13.2,6.8-25.2,15.1-34.7c11.6-13.5,28.8-22,48-22
	s36.4,8.5,48,22c8.2,9.5,13.7,21.5,15.1,34.7h35c3.5,0,6.4-2.9,6.4-6.4v-22.2C503.5,323,500.7,320.2,497.4,320.2z M448.6,219.9
	H337.1c-4.1,0-7.5-3.4-7.5-7.5v-43.1c0-3.8,3.1-6.9,6.9-6.9h76c3.2,0,6.1,1.6,7.9,4.2l31.6,46.9
	C453.8,216.2,451.9,219.9,448.6,219.9z"/>
<path class="st1" d="M446.7,355c-2.1-14.8-10.8-27.4-23.1-34.7c-7.2-4.3-15.6-6.7-24.6-6.7s-17.4,2.5-24.6,6.7
	c-12.3,7.3-21.1,19.9-23.1,34.7c-0.3,2.2-0.5,4.5-0.5,6.8c0,26.6,21.6,48.2,48.2,48.2s48.2-21.6,48.2-48.2
	C447.2,359.4,447,357.2,446.7,355z M399,385.2c-13,0-23.5-10.5-23.5-23.5c0-2.3,0.3-4.6,1-6.8c2.9-9.7,11.9-16.7,22.5-16.7
	s19.6,7,22.5,16.7c0.7,2.1,1,4.4,1,6.8C422.5,374.7,412,385.2,399,385.2z"/>
<path class="st1" d="M169.8,355c-2.1-14.8-10.8-27.4-23.1-34.7c-7.2-4.3-15.6-6.7-24.6-6.7c-9,0-17.4,2.5-24.6,6.7
	c-12.3,7.3-21.1,19.9-23.2,34.7c-0.3,2.2-0.5,4.5-0.5,6.8c0,26.6,21.6,48.2,48.2,48.2c26.6,0,48.2-21.6,48.2-48.2
	C170.3,359.4,170.1,357.2,169.8,355z M122.1,385.2c-13,0-23.5-10.5-23.5-23.5c0-2.3,0.3-4.6,1-6.8c2.9-9.7,11.9-16.7,22.5-16.7
	c10.6,0,19.6,7,22.5,16.7c0.7,2.1,1,4.4,1,6.8C145.5,374.7,135,385.2,122.1,385.2z"/>
<g>
	<polygon class="st2" points="80.4,196.5 53,208.8 53,209.6 33,200.4 61.6,187.3 	"/>
	<polygon class="st2" points="114.8,180.9 94.7,190 75.5,180.9 95.4,171.7 	"/>
	<polygon class="st2" points="121.5,216.6 95.4,228.9 65.9,215.5 93,202.7 	"/>
	<polygon class="st2" points="156,200.3 136.2,209.6 107.3,195.9 127,186.6 	"/>
	<polygon class="st1" points="64.5,237.1 64.5,280.5 53,275 53,230.8 	"/>
	<polygon class="st3" points="64.5,280.5 64.5,237.1 53,230.8 53,275 33,265.3 33,200.4 53,209.6 53,226.4 65.9,233.6 65.9,215.5 
		95.4,228.9 95.4,228.9 96.1,295.6 	"/>
	<polygon class="st4" points="156,200.3 156,266 136.2,275.8 136.2,246 122.8,251.5 122.8,282.4 96.1,295.6 95.4,228.9 95.4,228.9 
		121.5,216.6 121.5,216.6 122.3,244.6 136.2,238.2 136.2,209.6 	"/>
	<polygon class="st1" points="136.2,209.6 136.2,238.2 122.3,244.6 121.5,216.6 121.5,216.6 93,202.7 65.9,215.5 65.9,233.6 
		53,226.4 53,208.8 80.4,196.5 61.6,187.3 75.5,180.9 94.7,190 114.8,180.9 127,186.6 107.3,195.9 	"/>
	<polygon class="st1" points="136.2,246 136.2,275.8 122.8,282.4 122.8,251.5 	"/>
</g>
<path class="st5" d="M223.1,273.4c-4.3,0-7.8,3.5-7.8,7.8c0,4.3,3.5,7.8,7.8,7.8s7.8-3.5,7.8-7.8
	C230.9,276.8,227.4,273.4,223.1,273.4z"/>
<g>
	<path class="st1" d="M259.2,111.8H187c-9.2,0-16.6,7.4-16.6,16.6V279c0,9.2,7.4,16.6,16.6,16.6h72.2c9.2,0,16.6-7.4,16.6-16.6
		V128.3C275.8,119.2,268.4,111.8,259.2,111.8z M208.5,118.5c0.6-0.6,1.3-0.9,2.2-0.9h24.8c1.7,0,3.1,1.4,3.1,3.1
		c0,0.9-0.3,1.6-0.9,2.2s-1.3,0.9-2.2,0.9h-24.8c-1.7,0-3.1-1.4-3.1-3.1C207.6,119.8,207.9,119.1,208.5,118.5z M223.1,288.9
		c-4.3,0-7.8-3.5-7.8-7.8c0-2.1,0.9-4.1,2.3-5.5c1.4-1.4,3.4-2.3,5.5-2.3c2.2,0,4.1,0.9,5.5,2.3c1.4,1.4,2.3,3.3,2.3,5.5
		C230.9,285.4,227.4,288.9,223.1,288.9z M267.6,264.2h-89V129.6h89V264.2z"/>
	<path class="st2" d="M238.6,120.7c0,0.9-0.3,1.6-0.9,2.2c-0.6,0.6-1.3,0.9-2.2,0.9h-24.8c-1.7,0-3.1-1.4-3.1-3.1
		c0-0.9,0.3-1.6,0.9-2.2c0.6-0.6,1.3-0.9,2.2-0.9h24.8C237.2,117.6,238.6,119,238.6,120.7z"/>
	<path class="st2" d="M178.6,129.6v134.6h89V129.6H178.6z M205.4,236.7c-3.4,0-6.2-2.8-6.2-6.2c0-3.4,2.8-6.2,6.2-6.2
		c3.4,0,6.2,2.8,6.2,6.2C211.6,234,208.9,236.7,205.4,236.7z M247.8,236.7c-3.4,0-6.2-2.8-6.2-6.2c0-3.4,2.8-6.2,6.2-6.2
		c3.4,0,6.2,2.8,6.2,6.2C254,234,251.2,236.7,247.8,236.7z M260.2,180.1l-6.5,27.1c-0.2,0.6-0.7,1.1-1.3,1.2l-34.3,4l-6.8,0.8
		l-4.6,0.5c-1.7,0.8-3.1,2.1-3.7,3.9h48.8c0.6,0,1.1,0.2,1.5,0.6c0.4,0.4,0.6,0.9,0.6,1.5c0,1.4-1.1,2.6-2.5,2.6h-51.8
		c-0.7,0-1.3-0.5-1.4-1.2c0-0.4-0.1-0.8-0.1-1.1c0-0.8,0.1-1.6,0.2-2.4c0.8-3.8,3.5-6.9,7-8.3l-8.8-31.2l-0.6-3.4h-7.8
		c-0.6,0-1.2-0.3-1.7-0.7c-0.4-0.4-0.7-1-0.7-1.7c0-1.3,1.1-2.4,2.4-2.4H199c0.4,0,0.8,0.3,0.9,0.7l0.6,2.2l1.4,5.2h56.8
		C259.7,178.2,260.4,179.2,260.2,180.1z"/>
	<circle class="st2" cx="223.1" cy="281.1" r="7.8"/>
	<g>
		<path class="st0" d="M205.4,224.3c-3.4,0-6.2,2.8-6.2,6.2c0,3.4,2.8,6.2,6.2,6.2s6.2-2.8,6.2-6.2
			C211.6,227.1,208.9,224.3,205.4,224.3z M205.4,232.5c-1.1,0-2-0.9-2-2c0-1.1,0.9-2,2-2c1.1,0,2,0.9,2,2
			C207.4,231.6,206.5,232.5,205.4,232.5z"/>
		<path class="st5" d="M252.4,183.6l-47.5,0c-0.1,0-0.2,0-0.3,0.1c0.1,0,0.2-0.1,0.3-0.1L252.4,183.6z"/>
		<path class="st5" d="M204.8,183.7c-0.1,0-0.2,0-0.3,0.1C204.6,183.7,204.7,183.7,204.8,183.7l47.5,0L204.8,183.7z"/>
		<path class="st0" d="M206.7,213.8l4.6-0.5l6.8-0.8l34.3-4c0.6-0.1,1.2-0.5,1.3-1.2l6.5-27.1c0.2-1-0.5-1.9-1.5-1.9h-56.8l-1.4-5.2
			l-0.6-2.2c-0.1-0.4-0.5-0.7-0.9-0.7h-10.7c-1.3,0-2.4,1.1-2.4,2.4c0,0.7,0.3,1.2,0.7,1.7c0.4,0.4,1,0.7,1.7,0.7h7.8l0.6,3.4
			l8.8,31.2c-3.5,1.4-6.2,4.5-7,8.3c-0.2,0.8-0.2,1.6-0.2,2.4c0,0.4,0,0.8,0.1,1.1c0.1,0.7,0.7,1.2,1.4,1.2h51.8
			c1.4,0,2.5-1.2,2.5-2.6c0-0.6-0.2-1.1-0.6-1.5c-0.4-0.4-0.9-0.6-1.5-0.6H203C203.6,215.9,205,214.6,206.7,213.8z M204,184.8
			c-0.1-0.3,0-0.6,0.2-0.8c0.1-0.1,0.2-0.1,0.3-0.2c0.1,0,0.2-0.1,0.3-0.1l47.5,0c0.5,0,0.9,0.5,0.8,1l-4.1,18.6
			c-0.1,0.3-0.3,0.5-0.6,0.6c0,0-0.1,0-0.1,0l-36.8,3.8c-0.2,0-0.4,0-0.6-0.2c0,0-0.1-0.1-0.1-0.1c-0.1-0.1-0.2-0.2-0.2-0.3
			L204,184.8z"/>
		<path class="st2" d="M253.2,184.7l-4.1,18.6c-0.1,0.3-0.3,0.5-0.6,0.6c0,0-0.1,0-0.1,0l-36.8,3.8c-0.2,0-0.4,0-0.6-0.2
			c0,0-0.1,0-0.1-0.1c-0.1-0.1-0.2-0.2-0.2-0.3l-6.6-22.4c-0.1-0.3,0-0.6,0.2-0.8c0.1-0.1,0.2-0.1,0.3-0.2c0.1,0,0.2-0.1,0.3-0.1
			l47.5,0C252.9,183.6,253.3,184.1,253.2,184.7z"/>
		<path class="st0" d="M247.8,224.3c-3.4,0-6.2,2.8-6.2,6.2c0,3.4,2.8,6.2,6.2,6.2c3.4,0,6.2-2.8,6.2-6.2
			C254,227.1,251.2,224.3,247.8,224.3z M247.8,232.5c-1.1,0-2-0.9-2-2c0-1.1,0.9-2,2-2c1.1,0,2,0.9,2,2
			C249.7,231.6,248.9,232.5,247.8,232.5z"/>
	</g>
</g>
</svg>
