<?xml version="1.0" encoding="utf-8"?>
<!-- Generator: Adobe Illustrator 27.3.1, SVG Export Plug-In . SVG Version: 6.00 Build 0)  -->
<svg version="1.1" xmlns="http://www.w3.org/2000/svg" xmlns:xlink="http://www.w3.org/1999/xlink" x="0px" y="0px"
	 viewBox="0 0 512 512" style="enable-background:new 0 0 512 512;" xml:space="preserve">
<style type="text/css">
	.st0{fill:#C3D3EF;}
	.st1{fill:#98C3FF;}
	.st2{fill:#72778B;}
	.st3{fill:none;}
	.st4{fill:#68A4FF;}
	.st5{fill:#FFFFFF;}
	.st6{fill:#95A2BA;}
	.st7{fill:#F2F2F2;}
</style>
<g id="Layer_3">
</g>
<g id="Layer_5">
	<g>
		<path class="st0" d="M188.4,434.3c-1.2,8.7-2.7,19.5-5.9,30c-2.1,6.8-4.9,13.7-8.2,20.3c-38.8-13.9-73-37.3-99.8-67.5
			c5.2-4,12.7-8.5,21.6-10.1c8.9-1.6,9.2,1.5,24.4,2.6c12,0.9,26.3,2,41.2-4.1c11-4.5,17.1-10.8,22-7.7c1.3,0.8,2.9,2.4,4.4,10.1
			C190.3,419.7,189.1,429.4,188.4,434.3z"/>
		<path class="st0" d="M462.4,356.7c6.7,0,12.7-2.5,17.3-6.7c-3.1,7.3-6.5,14.5-10.3,21.4c-8.6-1.7-21.4-4.9-33.2-10.1
			c0.5-1.5,0.9-3.1,1.3-4.7H462.4z"/>
		<path class="st0" d="M488.3,326.1v-14.7c0-8.7-4.3-16.4-10.9-21v-68.1c0-6-1.8-11.7-5.1-16.7l-47.1-69.9c-1.8-2.6-3.9-4.9-6.2-6.8
			c3.2-4,6.3-7.5,8.7-10.1c1.8-2,7-7.6,15.3-14.3c0.5-0.4,1.1-0.8,1.6-1.3c33.8,41.7,54.1,94.9,54.1,152.8
			C498.7,280.4,495,303.9,488.3,326.1z"/>
		<g>
			<path class="st1" d="M432.9,89.9c-9.3,8.1-21.2,19.6-31.1,32.6c-0.4,0-0.9,0-1.3,0h-87.2c2.3-4.3,3.5-8.9,2.2-13.9
				c-2.5-10.2-13.2-15.9-18-18.4c-21.7-11.4-35.1,3.9-60.7-4.5c-3-1-24.2-8.3-34.4-27.6c-7-13.3-7.2-29.2-8.6-36.7
				c19.9-5.3,40.7-8,62.2-8C325.8,13.3,388.7,42.8,432.9,89.9z"/>
			<path class="st2" d="M462.7,306.1h-5.6v-83.8c0-1.9-0.6-3.8-1.6-5.3L427,174.7l-4.2-6.3l-14.4-21.3c-0.3-0.4-0.5-0.8-0.9-1.1
				c-1.8-2-4.3-3.1-7-3.1h-97.9c-5.3,0-9.6,4.3-9.6,9.5v153.7H177.2c7.2,8.3,11.9,18.8,13.1,30.3h131.5c0.8-7.6,3.1-14.7,6.7-21.1
				c1.8-3.3,4-6.4,6.4-9.2c3-3.4,6.3-6.5,10-9.1c6.2-4.4,13.4-7.5,21.2-9.1c3.4-0.7,7-1,10.7-1c8.4,0,16.3,1.9,23.4,5.2h0
				c6.1,2.9,11.6,6.8,16.3,11.6c0.8,0.8,1.5,1.6,2.2,2.4c7.2,8.3,11.9,18.8,13.2,30.3h30.5c3.1,0,5.6-2.5,5.6-5.6v-19.4
				C468,308.5,465.6,306.1,462.7,306.1z M420.2,218.5h-97.3c-3.6,0-6.5-2.9-6.5-6.5v-37.6c0-3.3,2.7-6,6-6h66.3
				c2.8,0,5.3,1.4,6.9,3.7l27.6,41C424.7,215.3,423,218.5,420.2,218.5z"/>
			<path class="st1" d="M29.4,294c-3.6,4.1-5.7,9.5-5.7,15.4v16.7c-6.1-20.3-9.7-41.7-10.2-63.8c0,0,0,0,0,0c0-2.1-0.1-4.2-0.1-6.3
				c0-25.4,3.9-49.8,11.1-72.8l0.6,95.5C25.2,284.3,26.7,289.5,29.4,294z"/>
			<path class="st2" d="M44,333v-23.5c0-1.9,1.5-3.4,3.4-3.4h46c-7.2,8.3-11.9,18.8-13.2,30.3H47.4C45.5,336.3,44,334.8,44,333z"/>
			<path class="st1" d="M99.2,393.1c-0.3,0-0.6,0.1-0.9,0.2c-2.9,0.6-17,3.5-31.2,14.7c0,0-0.1,0-0.1,0.1
				c-11.3-14.1-21.1-29.4-29.1-45.8c-1.7-3.5-3.3-7-4.8-10.5c4,3.1,9,4.9,14.4,4.9h27.2C78.1,371.6,87.1,384.5,99.2,393.1z"/>
			<path class="st1" d="M458.4,389.9c-26,39.3-63.2,70.5-106.9,89.2c-23.4,10-48.7,16.5-75.2,18.7c-6.7,0.6-13.4,0.8-20.2,0.8
				c-21.7,0-42.7-2.8-62.7-8.2c-2.1-0.5-4.2-1.1-6.2-1.7c22.8-46.1,15.5-83,15.5-83c-3.9-18.8-14.2-22.2-20.4-22.4
				c6.6-7.5,11.4-16.6,13.8-26.7h5.6c1.1,2.1,2.5,4.2,4.3,6c20.8,21.9,72.7,2.1,81.2-1.3c3.5-1.4,6.9-3,10.4-4.7h18.8
				c6.5,27.5,31.3,48,60.7,48c20.5,0,38.7-9.9,50.1-25.2C434.1,383.2,444.6,387.5,458.4,389.9z"/>
			<path class="st0" d="M246.2,211.6V258l-13.9,6.9l-9.5,4.7l-13.8,6.8c-0.9-1-1.9-2-3-3c-0.7-0.6-1.4-1.2-2.1-1.7
				c-6.4-4.7-13.9-6.5-22.2-6.6c-2,0-4,0-6,0.2l-2.1-1l-13.2-6.3h0l-0.7,0.4l-0.3-0.1v0.4l-13.9,6.9l-9.5,4.7l-5.2,2.6h0
				c-1.6,0.2-3.2,0.4-4.8,0.6c-0.9,0.1-1.8,0.2-2.8,0.2c-0.1,0-0.1,0-0.2,0c-0.5,0-0.9,0.1-1.4,0.1c-0.6,0-1.2,0.1-1.8,0.1
				c-0.8,0-1.5,0.1-2.3,0.1c-0.2,0-0.4,0-0.6,0c-0.6,0-1.2,0-1.8,0c-0.1,0-0.2,0-0.3,0c-0.5,0-1,0-1.5,0c-0.4,0-0.8,0-1.2,0
				c-0.9,0-1.8-0.1-2.7-0.2c-0.4,0-0.7-0.1-1.1-0.1c-0.1,0-0.2,0-0.3,0c-1.6-0.2-3.2-0.4-4.8-0.7h0l-8.5-4.1l-8.1-3.9l-9.1-4.4l0,0
				c-1.8-1.6-3.5-3.3-5-5.1v-43.2l20.2-9.3l7.5-3.4v-30.9l26.9-12.4l13.1-6l18.8-8.6l18.2,8.6l11.5,5.4l27.2,12.9v28.8l1.1,0.5
				l8.6,4.1L246.2,211.6z"/>
			<path class="st0" d="M76,107.4c-1.1-3.7-1.9-7.6-1.9-11.9c23.6-26.8,53-48.3,86.3-62.5c5.4-2.3,11-4.5,16.6-6.4
				c11.6,15.5,7.9,46,35.5,63.6c19,12.1,41.2,10.8,58.7,9.9c14.1-0.7,25.1-1,28.8,6.3c2.5,4.8,0.5,10.5-3.3,16.7
				c-2.1,0.4-4.2,1.1-6.1,1.9c-5.1-10.4-16-17.7-28.5-17.7H76z"/>
			<path class="st0" d="M226,356.7h27.4C242.4,359.2,232.8,359.4,226,356.7z"/>
		</g>
	</g>
	<g>
		<g>
			<path class="st2" d="M418.5,336.3c-1.1-7.6-4.2-14.5-8.7-20.3c-3.2-4-7.1-7.4-11.5-10c-1.5-0.9-3.2-1.7-4.8-2.4
				c-5.1-2.2-10.7-3.4-16.6-3.4c-7.2,0-14,1.8-19.9,5c-0.5,0.3-1,0.6-1.5,0.8c-8.6,5.1-15.2,13.2-18.4,22.7c-0.8,2.4-1.4,5-1.8,7.6
				c-0.3,1.9-0.4,3.9-0.4,5.9c0,23.2,18.8,42,42,42c13.5,0,25.5-6.3,33.2-16.2c4-5.1,6.8-11.2,8.1-17.8c0.5-2.6,0.8-5.3,0.8-8.1
				C418.9,340.2,418.8,338.3,418.5,336.3z M394.8,352.1c-3.5,6.3-10.2,10.6-17.9,10.6c-11.3,0-20.5-9.1-20.5-20.5
				c0-2.1,0.3-4,0.9-5.9c2.5-8.4,10.4-14.6,19.6-14.6c4,0,7.7,1.1,10.9,3.1c4.2,2.6,7.3,6.7,8.7,11.5c0.6,1.9,0.9,3.8,0.9,5.9
				C397.3,345.8,396.4,349.2,394.8,352.1z"/>
			<path d="M93.4,306.1c-7.2,8.3-11.9,18.8-13.2,30.3H47.4c-1.9,0-3.4-1.5-3.4-3.4v-23.5c0-1.9,1.5-3.4,3.4-3.4H93.4z"/>
			<path d="M48.4,130.3c-1.3,2.1-2.5,4.3-3.8,6.5C45,134.2,46.4,131.9,48.4,130.3z"/>
			<polygon points="246.2,211.6 246.2,258 232.3,264.9 222.8,269.6 209,276.4 204,278.9 181.7,268.2 175.6,265.3 173.5,264.3 
				160.4,258 160.3,258 159.7,258.3 159.4,258.2 159.4,258.6 145.5,265.5 136,270.1 130.8,272.7 130.8,272.7 117.2,279.5 
				103.4,272.8 103.4,272.8 94.9,268.8 86.7,264.9 77.6,260.5 77.6,260.5 72.6,258.1 72.6,212.3 92.8,203 100.2,199.6 100.2,168.7 
				127.2,156.3 140.3,150.3 159,141.7 177.2,150.3 188.8,155.7 216,168.6 216,197.4 217.1,197.9 225.8,202 			"/>
		</g>
		<g>
			<path class="st3" d="M122.4,240.5L122.4,240.5c-0.3-2.4-1.5-4.4-3.3-5.8c-0.7-0.5-1.5-1-2.4-1.3c-0.8-0.3-1.7-0.4-2.6-0.4
				c-1.7,0-3.2,0.5-4.5,1.3c-2.4,1.5-3.9,4.1-3.9,7.2c0,4.7,3.8,8.5,8.4,8.5c1,0,1.9-0.2,2.8-0.5c3.3-1.2,5.6-4.3,5.6-8
				C122.5,241.1,122.5,240.8,122.4,240.5z"/>
			<g>
				<path class="st2" d="M93.4,306.1c-7.2,8.3-11.9,18.8-13.2,30.3H47.4c-1.9,0-3.4-1.5-3.4-3.4v-23.5c0-1.9,1.5-3.4,3.4-3.4H93.4z"
					/>
				<path class="st2" d="M176.9,336.3c-1.8-12.9-9.4-23.9-20.2-30.3c-6.3-3.7-13.6-5.8-21.4-5.8c-7.8,0-15.2,2.1-21.4,5.8
					c-10.7,6.4-18.4,17.4-20.2,30.3c-0.3,1.9-0.4,3.9-0.4,5.9c0,23.2,18.8,42,42.1,42c23.2,0,42-18.8,42-42
					C177.3,340.2,177.2,338.3,176.9,336.3z M135.3,362.7c-11.3,0-20.5-9.1-20.5-20.5c0-2.1,0.3-4,0.9-5.9
					c2.5-8.4,10.4-14.6,19.6-14.6s17.1,6.1,19.6,14.6c0.6,1.9,0.9,3.8,0.9,5.9C155.7,353.6,146.6,362.7,135.3,362.7z"/>
			</g>
			<path class="st4" d="M48.4,130.3c-1.3,2.1-2.5,4.3-3.8,6.5C45,134.2,46.4,131.9,48.4,130.3z"/>
			<path class="st4" d="M273.3,138.3c0-5.9-5.1-10.6-11.3-10.6H55.8c-2.8,0-5.4,1-7.4,2.6c-1.3,2.1-2.5,4.3-3.8,6.5c0,0,0,0,0,0
				c-0.1,0.5-0.1,1.1-0.1,1.7l0.3,43.5l0.4,51.2l0.3,45.5c0,5.9,5.1,10.6,11.2,10.6H263c6.2,0,11.3-4.8,11.2-10.7L273.3,138.3z
				 M246.2,258l-13.9,6.9l-9.5,4.7l-13.8,6.8l-5,2.5l-22.3-10.7l-6-2.9l-2.1-1l-13.2-6.3h0l-0.7,0.4l-0.3-0.1v0.4l-13.9,6.9
				l-9.5,4.7l-5.2,2.6h0l-13.6,6.8l-13.8-6.6h0l-8.5-4.1l-8.1-3.9l-9.1-4.4l0,0l-5-2.4v-45.8l20.2-9.3l7.5-3.4v-30.9l26.9-12.4
				l13.1-6l18.8-8.6l18.2,8.6l11.5,5.4l27.2,12.9v28.8l1.1,0.5l8.6,4.1l20.4,9.7V258z"/>
			<polygon class="st4" points="246.2,211.6 246.2,258 232.3,264.9 222.8,269.6 209,276.4 204,278.9 181.7,268.2 175.6,265.3 
				173.5,264.3 160.4,258 160.3,258 159.7,258.3 159.4,258.2 159.4,258.6 145.5,265.5 136,270.1 130.8,272.7 130.8,272.7 
				117.2,279.5 103.4,272.8 103.4,272.8 94.9,268.8 86.7,264.9 77.6,260.5 77.6,260.5 72.6,258.1 72.6,212.3 92.8,203 100.2,199.6 
				100.2,168.7 127.2,156.3 140.3,150.3 159,141.7 177.2,150.3 188.8,155.7 216,168.6 216,197.4 217.1,197.9 225.8,202 			"/>
			<g>
				<polygon class="st5" points="144.8,165 119.1,176.6 119.1,177.3 100.2,168.7 127.2,156.3 				"/>
				<polygon class="st5" points="177.2,150.3 158.3,158.9 140.3,150.3 159,141.7 				"/>
				<polygon class="st5" points="183.5,183.9 159,195.5 131.3,182.9 156.8,170.8 				"/>
				<polygon class="st5" points="216,168.6 197.4,177.4 170.2,164.5 188.8,155.7 				"/>
				<polygon class="st2" points="125.4,200.7 119.1,203.6 119.1,197.3 				"/>
				<polygon class="st2" points="129.9,206.8 129.9,211.4 125.1,209.1 				"/>
				<polygon class="st2" points="129.9,221.2 129.9,244.1 119.1,238.9 119.1,215.9 				"/>
				<polygon class="st6" points="106,209.5 100.2,212.1 100.2,206.6 				"/>
				<polygon class="st6" points="119.1,215.9 119.1,238.9 116.7,237.7 100.2,229.8 100.2,220.8 115,213.9 				"/>
				<polygon class="st6" points="129.4,198.9 125.3,200.7 119.1,197.3 119.1,203.5 116.2,204.9 102.6,198.5 100.2,199.6 
					100.2,168.7 119.1,177.3 119.1,193.2 				"/>
				<polygon class="st6" points="159.7,257.6 159.7,258.3 159.4,258.2 145.5,251.5 145.5,244.4 137.5,247.7 137.5,247.7 
					129.9,244.1 129.9,221.2 135.1,223.7 135.1,223.7 135.6,243.5 145.5,238.9 145.5,218.8 129.9,211.4 129.9,206.8 139,202.5 
					131.3,198.9 131.3,182.9 159,195.5 159.2,212.1 159.2,212.3 159.4,230.4 				"/>
				<polygon class="st7" points="182.7,222.3 184.8,221.3 184.8,245.9 181.7,247.4 181.7,237.6 173.5,233.1 173.5,251.5 160.4,258 
					160.3,258 159.7,258.3 159.7,257.6 159.4,230.4 159.2,212.3 159.2,212.1 159,195.5 183.5,183.9 183.6,183.9 184,200.4 
					179.6,202.4 184.2,204.7 184.3,210.3 190.2,207.6 190.2,207.6 192.8,208.9 173.5,217.6 173.5,230 182.7,235.1 				"/>
				<polygon class="st7" points="216,168.6 216,198.4 203,204.3 197.4,201.7 197.4,177.4 				"/>
				<polygon class="st7" points="216,206.6 216,210.5 211.9,208.5 				"/>
				<polygon class="st7" points="216,220.2 216,230.5 203.5,236.7 197.4,239.7 197.4,215.3 201.8,213.3 				"/>
				<polygon class="st2" points="197.4,177.4 197.4,194.2 189.4,197.9 184,200.4 183.6,183.9 183.5,183.9 156.8,170.8 131.3,182.9 
					131.3,198.9 130.3,198.5 119.1,193.2 119.1,176.6 144.8,165 127.2,156.3 140.3,150.3 158.3,158.9 177.2,150.3 188.8,155.7 
					170.2,164.5 				"/>
				<polygon class="st2" points="130.3,198.5 129.4,198.9 119.1,193.2 				"/>
				<polygon class="st2" points="190.2,207.6 184.3,210.3 184.1,204.7 				"/>
				<polygon class="st2" points="197.4,194.2 197.4,201.7 189.4,197.9 				"/>
				<polygon class="st2" points="197.4,215.3 197.4,239.7 184.8,245.9 184.8,221.3 				"/>
				<polygon class="st5" points="106,209.5 100.2,212.1 86.7,218.2 86.7,218.7 72.6,212.3 92.8,203 100.2,206.6 				"/>
				<polygon class="st5" points="130.3,198.5 129.4,198.9 125.4,200.7 119.1,203.6 116.2,204.9 102.6,198.5 116.7,192 119.1,193.2 
									"/>
				<polygon class="st5" points="135.1,223.7 129.9,226.1 129.9,226.1 119.1,231.2 116.7,232.4 100.2,224.9 100.2,224.9 95.9,222.9 
					100.2,220.8 115,213.9 119.1,215.9 129.9,221.2 				"/>
				<polygon class="st5" points="159.4,212.2 159.2,212.3 145.5,218.8 129.9,211.4 125.1,209.1 129.9,206.8 139,202.5 159.2,212.1 
									"/>
				<polygon class="st2" points="94.9,238.2 94.9,268.8 86.7,264.9 86.7,233.7 				"/>
				<polygon class="st6" points="117.2,279.5 103.4,272.8 103.4,272.8 94.9,268.8 94.9,238.2 86.7,233.7 86.7,264.9 77.6,260.5 
					77.6,260.5 72.6,258.1 72.6,212.3 86.7,218.7 86.7,230.6 95.8,235.6 95.8,222.9 100.2,224.9 100.2,224.9 116.7,232.4 
					116.7,232.4 116.7,233.4 116.7,237.7 116.8,249.4 117.1,273.8 				"/>
				<polygon class="st7" points="159.4,212.2 159.4,258.6 145.5,265.5 145.5,244.4 137.5,247.7 137.5,247.7 136,248.3 136,270.1 
					130.8,272.7 130.8,272.7 117.2,279.5 117.1,273.8 116.8,249.4 116.7,237.7 116.7,233.4 116.7,232.4 116.7,232.4 119.1,231.2 
					129.9,226.1 129.9,226.1 135.1,223.7 135.1,223.7 135.6,243.5 145.5,238.9 145.5,218.8 159.2,212.3 				"/>
				<polygon class="st2" points="145.5,218.8 145.5,238.9 135.6,243.5 135.1,223.7 135.1,223.7 129.9,221.2 119.1,215.9 115,213.8 
					100.2,220.8 95.8,222.9 95.8,235.6 86.7,230.6 86.7,218.2 100.2,212.1 106,209.5 100.2,206.6 92.8,203 100.2,199.6 102.6,198.5 
					116.2,204.9 119.1,203.5 125.3,200.7 129.4,198.9 130.3,198.5 131.3,198.9 139,202.5 129.9,206.8 125.1,209.1 129.9,211.4 				
					"/>
				<polygon class="st2" points="145.5,244.4 145.5,265.5 136,270.1 136,248.3 137.5,247.7 137.5,247.7 				"/>
				<polygon class="st5" points="192.8,208.9 173.5,217.6 173.5,218.2 159.4,211.7 179.6,202.4 184.1,204.7 190.2,207.6 
					190.2,207.6 				"/>
				<polygon class="st5" points="217.1,197.9 216,198.4 203,204.3 197.4,201.7 189.4,197.9 197.4,194.2 203.5,191.4 216,197.4 				
					"/>
				<polygon class="st5" points="221.9,223.1 216,225.9 203.5,231.8 197.4,229.1 184.8,223.3 182.7,222.3 184.8,221.3 197.4,215.3 
					201.8,213.3 216,220.2 				"/>
				<polygon class="st5" points="246.2,211.6 232.3,218.2 216,210.5 211.9,208.5 216,206.6 225.8,202 				"/>
				<polygon class="st2" points="181.7,237.6 181.7,268.2 175.6,265.3 173.5,264.3 173.5,233.1 				"/>
				<polygon class="st6" points="181.7,237.6 173.5,233.1 173.5,264.3 160.4,258 160.3,258 159.7,257.7 159.7,257.6 159.4,257.5 
					159.4,211.7 173.5,218.1 173.5,230 182.7,235.1 182.7,222.3 184.8,223.3 197.4,229.1 203.5,231.8 203.5,236.6 203.9,271.7 
					204,278.9 181.7,268.2 				"/>
				<polygon class="st7" points="246.2,211.6 246.2,258 232.3,264.9 232.3,243.9 222.8,247.8 222.8,269.6 209,276.4 204,278.9 
					203.9,271.7 203.5,236.6 203.5,231.8 216,225.9 221.9,223.1 222.5,242.9 232.3,238.3 232.3,218.2 				"/>
				<polygon class="st2" points="232.3,218.2 232.3,238.3 222.5,242.9 221.9,223.1 216,220.2 216,210.5 				"/>
				<polygon class="st2" points="216,206.6 211.9,208.5 216,210.5 216,220.2 201.8,213.3 197.4,215.3 184.8,221.3 182.7,222.3 
					182.7,235.1 173.5,230 173.5,217.6 192.8,208.9 190.2,207.6 190.2,207.6 184.2,204.7 179.6,202.4 184,200.4 189.4,197.9 
					197.4,201.7 203,204.3 216,198.4 217.1,197.9 225.8,202 				"/>
				<polygon class="st2" points="232.3,243.9 232.3,264.9 222.8,269.6 222.8,247.8 				"/>
			</g>
		</g>
	</g>
</g>
</svg>
