<?xml version="1.0" encoding="utf-8"?>
<!-- Generator: Adobe Illustrator 27.3.1, SVG Export Plug-In . SVG Version: 6.00 Build 0)  -->
<svg version="1.1" id="Layer_2" xmlns="http://www.w3.org/2000/svg" xmlns:xlink="http://www.w3.org/1999/xlink" x="0px" y="0px"
	 viewBox="0 0 512 512" style="enable-background:new 0 0 512 512;" xml:space="preserve">
<style type="text/css">
	.st0{fill:#72778B;}
	.st1{fill:#E6E6E6;}
	.st2{fill:#FFFFFF;}
</style>
<path class="st0" d="M486.3,130.5v101.1H25.7V130.5c0-15.8,10.4-28.6,23.3-28.6h48.3V41.5c0-6.6,4.3-11.9,9.7-11.9h15.4
	c5.4,0,9.7,5.3,9.7,11.9v60.5h248.1V37.5c0-6.6,4.3-11.9,9.7-11.9h15.4c5.4,0,9.7,5.3,9.7,11.9v64.4h48
	C475.9,101.9,486.3,114.7,486.3,130.5z"/>
<path class="st1" d="M465,486.4H47c-11.8,0-21.3-9.5-21.3-21.3V231.6h460.7v233.5C486.3,476.9,476.8,486.4,465,486.4z"/>
<g>
	<g>
		<path class="st2" d="M69.6,145.1h13.8l4.1,23.1c0.8,5.2,1.6,10.4,2.4,15.7h0.4c1.2-5.2,2.3-10.5,3.5-15.7l6.4-23.1h11.4l6.4,23.1
			c1.2,5,2.4,10.4,3.6,15.7h0.4c0.8-5.3,1.6-10.6,2.4-15.7l4.1-23.1h12.8l-10.5,49.5h-16.9l-5.8-22.5c-0.9-3.8-1.7-7.8-2.4-11.5
			h-0.4c-0.7,3.7-1.5,7.7-2.4,11.5l-5.6,22.5H80.6L69.6,145.1z"/>
		<path class="st2" d="M145.7,175.8c0-12.2,10.5-19.8,21.3-19.8c12.9,0,19.3,7.8,19.3,18.1c0,2-0.3,4-0.6,4.9h-27.1
			c1.2,5.5,5.7,8,11.7,8c3.4,0,6.5-0.9,9.8-2.5l4.4,6.7c-4.6,2.7-10.7,4.2-16,4.2C155.7,195.5,145.7,188.2,145.7,175.8z
			 M174.9,171.6c0-4.1-2.2-7.1-7.5-7.1c-4.2,0-7.9,2.4-8.8,7.1H174.9z"/>
		<path class="st2" d="M193,175.8c0-12.2,10.5-19.8,21.3-19.8c12.9,0,19.3,7.8,19.3,18.1c0,2-0.3,4-0.6,4.9h-27.1
			c1.2,5.5,5.7,8,11.7,8c3.4,0,6.5-0.9,9.8-2.5l4.4,6.7c-4.6,2.7-10.7,4.2-16,4.2C202.9,195.5,193,188.2,193,175.8z M222.1,171.6
			c0-4.1-2.2-7.1-7.5-7.1c-4.2,0-7.9,2.4-8.8,7.1H222.1z"/>
		<path class="st2" d="M242.8,141.3h13.1v30.5h0.3l14.3-15h14.5l-15.8,15.5l17,22.2h-14.5l-10.2-14.7l-5.7,5.4v9.3h-13.1V141.3z"/>
		<path class="st2" d="M312.1,145.1h13.8l15.5,24.6l5.9,10.9h0.4c-0.6-5.2-1.7-12.2-1.7-18v-17.5h12.8v49.5h-13.8l-15.5-24.7
			l-5.9-10.8h-0.4c0.6,5.5,1.7,12.1,1.7,17.9v17.6h-12.8V145.1z"/>
		<path class="st2" d="M369,175.8c0-12.5,10.6-19.8,22-19.8s22,7.2,22,19.8c0,12.5-10.6,19.8-22,19.8S369,188.3,369,175.8z
			 M399.3,175.8c0-6.5-2.8-10.8-8.3-10.8c-5.5,0-8.3,4.2-8.3,10.8c0,6.5,2.8,10.7,8.3,10.7C396.5,186.5,399.3,182.3,399.3,175.8z"/>
		<path class="st2" d="M421.9,188.5c0-4,3.4-7,8.1-7c4.6,0,8.1,3.1,8.1,7c0,4-3.4,7-8.1,7C425.3,195.5,421.9,192.4,421.9,188.5z"/>
	</g>
</g>
</svg>
