<?xml version="1.0" encoding="utf-8"?>
<!-- Generator: Adobe Illustrator 24.1.2, SVG Export Plug-In . SVG Version: 6.00 Build 0)  -->
<svg version="1.1" id="Layer_2" xmlns="http://www.w3.org/2000/svg" xmlns:xlink="http://www.w3.org/1999/xlink" x="0px" y="0px"
	 viewBox="0 0 512 512" style="enable-background:new 0 0 512 512;" xml:space="preserve">
<style type="text/css">
	.st0{fill:#72778B;}
	.st1{fill:#C3D3EF;}
	.st2{fill:#FFFFFF;}
	.st3{fill:#337AB7;}
	.st4{fill:#00FFFF;}
</style>
<g>
	<g>
		<g>
			<path class="st0" d="M28,145.6v106.8h195.3V145.6H28z M44.8,166.2h99.3v60.4H44.8V166.2z M162.1,251.6v-66.2h46.8v66.2H162.1z"/>
			<rect x="162.1" y="185.4" class="st1" width="46.8" height="66.2"/>
			<rect x="44.8" y="166.2" class="st1" width="99.3" height="60.4"/>
			<rect x="162.1" y="251.6" class="st2" width="46.8" height="0.8"/>
			<rect x="69.3" y="93.9" class="st1" width="12.3" height="21"/>
			<rect x="169" y="92.9" class="st1" width="12.3" height="21.9"/>
			<rect x="42.1" y="48.1" class="st0" width="166.4" height="46.4"/>
			<rect x="9.5" y="251.6" class="st2" width="231.3" height="4.4"/>
			<g>
				<path class="st2" d="M137.5,107.8v40.8c0,4.5-3.7,8.2-8.2,8.2h-8.1c-4.5,0-8.2-3.7-8.2-8.2v-40.8H137.5z"/>
				<path class="st3" d="M162.1,107.8v40.8c0,4.5-3.7,8.2-8.2,8.2h-8.1c-4.5,0-8.2-3.7-8.2-8.2v-40.8H162.1z"/>
				<path class="st2" d="M186.6,107.8v40.8c0,4.5-3.7,8.2-8.2,8.2h-8.1c-4.5,0-8.2-3.7-8.2-8.2v-40.8H186.6z"/>
				<path class="st3" d="M210.9,108v40.8c0,0.5,0,1,0.1,1.4c-0.8,3.7-4.1,6.5-8,6.5h-8.1c-4.5,0-8.2-3.7-8.2-8.2v-40.8h24.5v0.2
					H210.9z"/>
				<path class="st4" d="M211.2,108v40.5c0,0.6,0,1.1-0.2,1.7c-0.1-0.5-0.1-0.9-0.1-1.4V108H211.2z"/>
				<path class="st2" d="M235.4,126.4v22.4c0,4.5-3.7,8.2-8.2,8.2h-8.1c-4,0-7.4-2.9-8.1-6.8c-0.1-0.5-0.1-0.9-0.1-1.4V108h6.1
					C227.2,108,235.4,116.3,235.4,126.4z"/>
				<path class="st3" d="M113,107.8v40.8c0,4.5-3.7,8.2-8.2,8.2h-8.1c-4.5,0-8.2-3.7-8.2-8.2v-40.8H113z"/>
				<path class="st2" d="M88.4,107.8v40.8c0,4.5-3.7,8.2-8.2,8.2h-8.1c-4.5,0-8.2-3.7-8.2-8.2v-40.8H88.4z"/>
				<path class="st3" d="M63.9,107.8v40.8c0,4.5-3.7,8.2-8.2,8.2h-8.1c-4.5,0-8.2-3.7-8.2-8.2v-40.8H63.9z"/>
				<path class="st2" d="M39.3,107.8v40.8c0,4.5-3.7,8.2-8.2,8.2H23c-4.5,0-8.2-3.7-8.2-8.2v-22.4c0-10.2,8.2-18.4,18.4-18.4H39.3z"
					/>
			</g>
		</g>
		<path class="st3" d="M419.1,198.8v-19.5c0-2.5-2-4.5-4.5-4.5H265.8c-2.5,0-4.5-2-4.5-4.5v-33.9c0-2.5,2-4.5,4.5-4.5h148.8
			c2.5,0,4.5-2,4.5-4.5v-22.1c0-3.6,4-5.8,7-3.8l70.7,46.8c2.7,1.8,2.7,5.8,0,7.6l-70.7,46.8C423.1,204.6,419.1,202.4,419.1,198.8z"
			/>
	</g>
	<g>
		<g>
			<path class="st0" d="M289.8,353.6v106.7H485V353.6H289.8z M306.6,374.1h99.3v60.4h-99.3V374.1z M423.9,459.5v-66.1h46.8v66.1
				H423.9z"/>
			<rect x="306.6" y="374.1" class="st1" width="99.3" height="60.4"/>
			<rect x="423.9" y="393.4" class="st1" width="46.8" height="66.1"/>
			<rect x="423.9" y="459.5" class="st2" width="46.8" height="0.8"/>
			<rect x="331.1" y="301.8" class="st1" width="12.3" height="21"/>
			<rect x="430.7" y="300.8" class="st1" width="12.3" height="21.9"/>
			<rect x="303.9" y="256" class="st0" width="166.4" height="46.4"/>
			<rect x="271.2" y="459.5" class="st2" width="231.3" height="4.4"/>
			<g>
				<path class="st2" d="M399.3,315.7v40.8c0,4.5-3.7,8.2-8.2,8.2H383c-4.5,0-8.2-3.7-8.2-8.2v-40.8H399.3z"/>
				<path class="st3" d="M423.9,315.7v40.8c0,4.5-3.7,8.2-8.2,8.2h-8.1c-4.5,0-8.2-3.7-8.2-8.2v-40.8H423.9z"/>
				<path class="st2" d="M448.4,315.7v40.8c0,4.5-3.7,8.2-8.2,8.2h-8.1c-4.5,0-8.2-3.7-8.2-8.2v-40.8H448.4z"/>
				<path class="st3" d="M472.7,316v40.8c0,0.5,0,1,0.1,1.4c-0.8,3.7-4.1,6.5-8,6.5h-8.1c-4.5,0-8.2-3.7-8.2-8.2v-40.8H473v0.2
					H472.7z"/>
				<path class="st4" d="M473,316v40.5c0,0.6,0,1.1-0.2,1.7c-0.1-0.5-0.1-0.9-0.1-1.4V316H473z"/>
				<path class="st2" d="M497.2,334.4v22.4c0,4.5-3.7,8.2-8.2,8.2h-8.1c-4,0-7.4-2.9-8.1-6.8c-0.1-0.5-0.1-0.9-0.1-1.4V316h6.1
					C489,316,497.2,324.2,497.2,334.4z"/>
				<path class="st3" d="M374.8,315.7v40.8c0,4.5-3.7,8.2-8.2,8.2h-8.1c-4.5,0-8.2-3.7-8.2-8.2v-40.8H374.8z"/>
				<path class="st2" d="M350.2,315.7v40.8c0,4.5-3.7,8.2-8.2,8.2h-8.1c-4.5,0-8.2-3.7-8.2-8.2v-40.8H350.2z"/>
				<path class="st3" d="M325.7,315.7v40.8c0,4.5-3.7,8.2-8.2,8.2h-8.1c-4.5,0-8.2-3.7-8.2-8.2v-40.8H325.7z"/>
				<path class="st2" d="M301.1,315.7v40.8c0,4.5-3.7,8.2-8.2,8.2h-8.1c-4.5,0-8.2-3.7-8.2-8.2v-22.4c0-10.2,8.2-18.4,18.4-18.4
					H301.1z"/>
			</g>
		</g>
		<path class="st1" d="M251.3,343.9v33.9c0,2.5-2,4.5-4.5,4.5H98c-2.5,0-4.5,2-4.5,4.5v19.5c0,3.6-4,5.8-7,3.8l-70.7-46.8
			c-2.7-1.8-2.7-5.8,0-7.5L86.4,309c3-2,7,0.2,7,3.8v22.1c0,2.5,2,4.5,4.5,4.5h148.8C249.3,339.4,251.3,341.4,251.3,343.9z"/>
	</g>
</g>
</svg>
