<?xml version="1.0" encoding="utf-8"?>
<!-- Generator: Adobe Illustrator 24.1.2, SVG Export Plug-In . SVG Version: 6.00 Build 0)  -->
<svg version="1.1" id="Layer_2" xmlns="http://www.w3.org/2000/svg" xmlns:xlink="http://www.w3.org/1999/xlink" x="0px" y="0px"
	 viewBox="0 0 512 512" style="enable-background:new 0 0 512 512;" xml:space="preserve">
<style type="text/css">
	.st0{fill:#72778B;}
	.st1{fill:#C3D3EF;}
	.st2{fill:#FFFFFF;}
	.st3{fill:#E6E6E6;}
	.st4{fill:#337AB7;}
	.st5{fill:#00FFFF;}
</style>
<path class="st0" d="M65.7,243.4v209.2h382.6V243.4H65.7z M98.6,283.7h194.6V402H98.6V283.7z M328.5,451.1V321.4h91.7v129.6H328.5z"
	/>
<rect x="328.5" y="321.4" class="st1" width="91.7" height="129.6"/>
<rect x="98.6" y="283.7" class="st1" width="194.6" height="118.3"/>
<rect x="328.5" y="451.1" class="st2" width="91.7" height="1.5"/>
<rect x="146.6" y="142" class="st1" width="24" height="41.1"/>
<rect x="341.9" y="140.1" class="st1" width="24.1" height="43"/>
<rect x="93.3" y="52.3" class="st0" width="326" height="90.9"/>
<g>
	<path class="st2" d="M198,104.2c0,3.6-1.2,6.6-3.7,9c-2.5,2.4-6.3,3.6-11.6,3.6c-9.3,0-14.4-4.7-15.5-14.1l7.5-0.8
		c0.8,5.3,3.6,7.9,8.3,7.9c2.3,0,4.1-0.5,5.5-1.6c1.3-1.1,2-2.4,2-4c0-0.9-0.2-1.7-0.7-2.4c-0.5-0.7-1.2-1.2-2.1-1.6
		c-0.9-0.4-3.2-1.1-6.9-2.1c-3.3-0.9-5.6-1.8-7.2-2.9c-1.5-1-2.7-2.4-3.6-4.1c-0.9-1.7-1.3-3.5-1.3-5.4c0-2.3,0.6-4.3,1.7-6.1
		c1.1-1.8,2.7-3.2,4.7-4.1c2-0.9,4.5-1.4,7.5-1.4c4.4,0,7.9,1.1,10.4,3.2s3.8,5.2,4,9.2l-7.7,0.4c-0.3-2.2-1.1-3.8-2.2-4.6
		c-1.1-0.9-2.7-1.3-4.8-1.3c-2.1,0-3.7,0.4-4.8,1.1c-1.1,0.8-1.7,1.7-1.7,2.9c0,1.1,0.5,2.1,1.5,2.8c1,0.8,3.3,1.6,7,2.5
		c3.8,1,6.6,2,8.3,3.1c1.7,1.1,3,2.5,3.9,4.2C197.6,99.6,198,101.7,198,104.2z"/>
	<polygon class="st2" points="231.8,75 231.8,81.9 220.6,81.9 220.6,116.1 213,116.1 213,81.9 201.8,81.9 201.8,75 	"/>
	<path class="st2" d="M265.9,79.8c-3.4-3.7-7.8-5.5-13.3-5.5c-3.7,0-6.9,0.8-9.5,2.3c-2.6,1.6-4.8,3.9-6.4,7.1
		c-1.6,3.2-2.4,7.2-2.4,12.1c0,6.8,1.8,12.1,5.4,16c3.2,3.4,7.5,5.1,13,5.1c5.4,0,9.7-1.7,12.9-5.1c3.6-3.9,5.4-9.3,5.4-16.2
		C271.1,88.7,269.3,83.5,265.9,79.8z M260.2,106.2c-2,2.4-4.5,3.5-7.5,3.5c-3,0-5.5-1.2-7.5-3.5c-2-2.4-3-5.9-3-10.7
		c0-4.8,1-8.4,2.9-10.7c2-2.3,4.5-3.5,7.6-3.5s5.6,1.1,7.5,3.4c1.9,2.3,2.9,5.8,2.9,10.6C263.2,100.3,262.2,103.9,260.2,106.2z"/>
	<path class="st2" d="M306.5,108.1c-1.8-3.2-3.3-5.5-4.4-6.7S299.7,99,298,98c3.2-0.5,5.7-1.7,7.4-3.7c1.7-2,2.6-4.6,2.6-7.8
		c0-2.5-0.6-4.7-1.7-6.6c-1.1-1.8-2.6-3.1-4.4-3.8c-1.8-0.7-4.7-1.1-8.8-1.1h-16.1v41.2h7.6V99h1.6c1.8,0,3,0.2,3.8,0.5
		c0.8,0.3,1.5,0.9,2.3,1.7c0.7,0.8,2.1,2.8,4,6.1l5.5,9h9.1L306.5,108.1z M290.4,92.4h-5.7V81.9h6c3.4,0,5.5,0.1,6.2,0.3
		c1,0.3,1.8,0.8,2.4,1.6c0.6,0.8,0.9,1.8,0.9,3.2c0,1.4-0.3,2.5-0.9,3.3c-0.6,0.8-1.4,1.4-2.3,1.6C296,92.2,293.8,92.4,290.4,92.4z"
		/>
	<polygon class="st2" points="344,109.2 344,116.1 315.2,116.1 315.2,75 343.3,75 343.3,81.9 322.9,81.9 322.9,91.1 341.9,91.1 
		341.9,98 322.9,98 322.9,109.2 	"/>
</g>
<rect x="29.4" y="451.1" class="st2" width="453.2" height="8.7"/>
<g>
	<path class="st3" d="M280.3,169.3v79.9c0,8.9-7.2,16.1-16.1,16.1h-15.9c-8.9,0-16.1-7.2-16.1-16.1v-79.9H280.3z"/>
	<path class="st3" d="M376.5,169.3v79.9c0,8.9-7.2,16.1-16.1,16.1h-15.9c-8.9,0-16.1-7.2-16.1-16.1v-79.9H376.5z"/>
	<path class="st4" d="M328.5,169.3v79.9c0,8.9-7.2,16.1-16.1,16.1h-15.9c-8.9,0-16.1-7.2-16.1-16.1v-79.9H328.5z"/>
	<path class="st4" d="M424.1,169.7v79.9c0,1,0.1,1.9,0.3,2.8c-1.5,7.3-8,12.8-15.8,12.8h-15.9c-8.9,0-16.1-7.2-16.1-16.1v-79.9h48.1
		v0.5H424.1z"/>
	<path class="st5" d="M424.7,169.7v79.4c0,1.1-0.1,2.2-0.3,3.3c-0.2-0.9-0.3-1.8-0.3-2.8v-79.9H424.7z"/>
	<path class="st3" d="M472.2,205.8v43.8c0,8.9-7.2,16.1-16.1,16.1h-15.9c-7.9,0-14.5-5.7-15.9-13.3c0.2-1.1,0.3-2.2,0.3-3.3v-79.4
		h11.4C456,169.7,472.2,185.9,472.2,205.8z"/>
	<path class="st2" d="M424.7,169.7v79.4c0,1.1-0.1,2.2-0.3,3.3c-0.2-0.9-0.3-1.8-0.3-2.8v-79.9H424.7z"/>
	<path class="st4" d="M232.3,169.3v79.9c0,8.9-7.2,16.1-16.1,16.1h-15.9c-8.9,0-16.1-7.2-16.1-16.1v-79.9H232.3z"/>
	<path class="st3" d="M184.1,169.3v79.9c0,8.9-7.2,16.1-16.1,16.1h-15.9c-8.9,0-16.1-7.2-16.1-16.1v-79.9H184.1z"/>
	<path class="st4" d="M136,169.3v79.9c0,8.9-7.2,16.1-16.1,16.1H104c-8.9,0-16.1-7.2-16.1-16.1v-79.9H136z"/>
	<path class="st3" d="M87.9,169.3v79.9c0,8.9-7.2,16.1-16.1,16.1H56c-8.9,0-16.1-7.2-16.1-16.1v-43.8c0-19.9,16.1-36.1,36.1-36.1
		H87.9z"/>
</g>
</svg>
