<?xml version="1.0" encoding="utf-8"?>
<!-- Generator: Adobe Illustrator 24.1.2, SVG Export Plug-In . SVG Version: 6.00 Build 0)  -->
<svg version="1.1" id="Layer_1" xmlns="http://www.w3.org/2000/svg" xmlns:xlink="http://www.w3.org/1999/xlink" x="0px" y="0px"
	 viewBox="0 0 512 512" style="enable-background:new 0 0 512 512;" xml:space="preserve">
<style type="text/css">
	.st0{fill:#337AB7;}
	.st1{fill:#72778B;}
	.st2{fill:#C3D3EF;}
</style>
<path class="st0" d="M490.6,37.5l0.5,116.4c0,9.3-7.5,16.9-16.8,17l0,0c-9.3,0-16.9-7.5-17-16.8l-0.2-34.4
	c-0.1-15.1-18.3-22.5-28.9-11.8l-115.9,117c-6.6,6.6-17.3,6.7-23.9,0.1l-92.9-92c-6.6-6.6-17.3-6.5-23.9,0.1L49.7,256
	c-6.6,6.6-17.3,6.7-23.9,0.1l0,0c-6.6-6.6-6.7-17.3-0.1-23.9l133.8-135l11.9-12c6.6-6.6,17.3-6.7,23.9-0.1l12,11.9l80.9,80.1
	c6.6,6.6,17.3,6.5,23.9-0.1l92.5-93.3c10.6-10.7,3-28.9-12.1-28.8L357.7,55c-9.3,0-16.9-7.5-17-16.8l0,0c0-9.3,7.5-16.9,16.8-17
	l116.1-0.5C483,20.6,490.6,28.1,490.6,37.5z"/>
<rect x="98.6" y="221.6" class="st1" width="92.3" height="267.4"/>
<rect x="209.8" y="301.9" class="st2" width="92.3" height="187.1"/>
<rect x="320.9" y="239.6" class="st1" width="92.3" height="249.4"/>
</svg>
