<?xml version="1.0" encoding="utf-8"?>
<!-- Generator: Adobe Illustrator 24.1.2, SVG Export Plug-In . SVG Version: 6.00 Build 0)  -->
<svg version="1.1" xmlns="http://www.w3.org/2000/svg" xmlns:xlink="http://www.w3.org/1999/xlink" x="0px" y="0px"
	 viewBox="0 0 512 512" style="enable-background:new 0 0 512 512;" xml:space="preserve">
<style type="text/css">
	.st0{fill:#E6E6E6;}
	.st1{fill:#72778B;}
	.st2{fill:#FFFFFF;}
	.st3{fill:#337AB7;}
	.st4{fill:#C3D3EF;}
	.st5{fill:#00FFFF;}
</style>
<g id="Layer_2">
</g>
<g id="Layer_3">
	<g>
		<g>
			<path class="st0" d="M444.8,273.5l14.2,62.9l-404.2-1.9l15-63.6c2.3-9.9,12.5-17.9,22.8-17.9l38.5,0.3l6.2-38
				c0.7-4.1,4.5-7.5,8.5-7.4l11.6,0.1c4,0,6.9,3.4,6.3,7.5l-4.9,38l197.5,1.5l-4.8-40.2c-0.5-4.1,2.4-7.4,6.4-7.4l11.5,0.1
				c4,0,7.8,3.4,8.4,7.5l6.2,40.2l38.2,0.3C432.5,255.7,442.6,263.7,444.8,273.5z"/>
			<path class="st1" d="M473.5,494.9H38.5c-11.8,0-19.9-5.8-18.3-12.9l34.7-147.5l404.2,1.9L492,482.1
				C493.6,489.2,485.3,494.9,473.5,494.9z"/>
			<g>
				<path class="st2" d="M98,370.5l-6.6,0c-1.5,0-2.5-0.8-2.3-1.9l3.7-19.7c0.2-1,1.5-1.8,3-1.8l6.5,0c1.4,0,2.5,0.8,2.3,1.9
					l-3.5,19.7C100.8,369.7,99.5,370.5,98,370.5z"/>
				<path class="st3" d="M152,370.7l-6.6,0c-1.5,0-2.6-0.8-2.4-1.9l2.6-19.7c0.1-1,1.4-1.8,2.9-1.8l6.5,0c1.4,0,2.5,0.8,2.4,1.9
					l-2.3,19.7C154.8,369.9,153.5,370.7,152,370.7z"/>
				<path class="st2" d="M206,370.9l-6.6,0c-1.5,0-2.6-0.8-2.6-1.9l1.4-19.6c0.1-1,1.3-1.8,2.8-1.8l6.5,0c1.4,0,2.6,0.8,2.5,1.9
					l-1.1,19.6C208.8,370,207.5,370.9,206,370.9z"/>
				<path class="st2" d="M260,371.1l-6.6,0c-1.5,0-2.7-0.8-2.7-1.9l0.2-19.6c0-1,1.2-1.8,2.6-1.8l6.5,0c1.4,0,2.6,0.8,2.6,1.9
					l0,19.6C262.7,370.2,261.5,371.1,260,371.1z"/>
				<path class="st2" d="M314.1,371.2l-6.6,0c-1.5,0-2.7-0.8-2.8-1.8l-0.9-19.6c0-1,1.1-1.8,2.5-1.8l6.5,0c1.4,0,2.7,0.8,2.7,1.9
					l1.2,19.6C316.7,370.4,315.6,371.2,314.1,371.2z"/>
				<path class="st2" d="M368.1,371.4l-6.6,0c-1.5,0-2.8-0.8-2.9-1.8l-2.1-19.6c-0.1-1,1-1.8,2.4-1.8l6.5,0c1.4,0,2.7,0.8,2.8,1.8
					l2.3,19.5C370.7,370.6,369.6,371.4,368.1,371.4z"/>
				<path class="st2" d="M422.1,371.6l-6.6,0c-1.5,0-2.8-0.8-3-1.8l-3.2-19.5c-0.2-1,0.9-1.8,2.3-1.8l6.5,0c1.4,0,2.8,0.8,2.9,1.8
					l3.5,19.5C424.7,370.8,423.6,371.6,422.1,371.6z"/>
			</g>
			<g>
				<path class="st2" d="M91.3,407.5l-6.9,0c-1.5,0-2.6-0.8-2.4-1.9l3.7-19.7c0.2-1,1.6-1.8,3.1-1.8l6.7,0c1.5,0,2.6,0.8,2.4,1.9
					l-3.5,19.7C94.3,406.7,92.9,407.5,91.3,407.5z"/>
				<path class="st3" d="M147.5,407.6l-6.9,0c-1.5,0-2.7-0.8-2.6-1.9l2.6-19.7c0.1-1,1.5-1.8,3-1.8l6.7,0c1.5,0,2.6,0.8,2.5,1.9
					l-2.3,19.7C150.4,406.8,149.1,407.6,147.5,407.6z"/>
				<path class="st2" d="M203.8,407.7l-6.9,0c-1.5,0-2.7-0.8-2.7-1.9l1.4-19.6c0.1-1,1.4-1.8,2.9-1.8l6.7,0c1.5,0,2.7,0.8,2.6,1.9
					l-1.1,19.6C206.6,406.9,205.3,407.7,203.8,407.7z"/>
				<path class="st2" d="M260,407.9l-6.9,0c-1.5,0-2.8-0.8-2.8-1.8l0.2-19.6c0-1,1.2-1.8,2.8-1.8l6.7,0c1.5,0,2.7,0.8,2.7,1.9
					l0,19.6C262.8,407.1,261.5,407.9,260,407.9z"/>
				<path class="st2" d="M316.2,408l-6.9,0c-1.5,0-2.8-0.8-2.9-1.8l-0.9-19.6c0-1,1.1-1.8,2.6-1.8l6.7,0c1.5,0,2.8,0.8,2.8,1.8
					l1.2,19.6C318.9,407.2,317.7,408,316.2,408z"/>
				<path class="st2" d="M372.4,408.1l-6.9,0c-1.5,0-2.9-0.8-3-1.8l-2.1-19.6c-0.1-1,1-1.8,2.5-1.8l6.7,0c1.5,0,2.8,0.8,2.9,1.8
					l2.3,19.5C375.1,407.3,373.9,408.1,372.4,408.1z"/>
				<path class="st2" d="M428.6,408.3l-6.9,0c-1.5,0-2.9-0.8-3.1-1.8l-3.2-19.5c-0.2-1,0.9-1.8,2.4-1.8l6.7,0c1.5,0,2.9,0.8,3.1,1.8
					l3.5,19.5C431.2,407.5,430.1,408.3,428.6,408.3z"/>
			</g>
			<g>
				<path class="st2" d="M84.7,444.5l-7.2,0c-1.6,0-2.7-0.8-2.6-1.9l3.7-19.7c0.2-1,1.6-1.8,3.2-1.8l7,0c1.6,0,2.7,0.8,2.5,1.9
					l-3.5,19.7C87.8,443.6,86.3,444.5,84.7,444.5z"/>
				<path class="st3" d="M143.1,444.5l-7.2,0c-1.6,0-2.8-0.8-2.7-1.9l2.6-19.7c0.1-1,1.5-1.8,3.1-1.8l7,0c1.6,0,2.7,0.8,2.6,1.9
					l-2.3,19.7C146.1,443.7,144.7,444.5,143.1,444.5z"/>
				<path class="st2" d="M201.5,444.6l-7.2,0c-1.6,0-2.8-0.8-2.8-1.8l1.4-19.6c0.1-1,1.4-1.8,3-1.8l7,0c1.6,0,2.8,0.8,2.7,1.9
					l-1.1,19.6C204.4,443.8,203.1,444.6,201.5,444.6z"/>
				<path class="st2" d="M259.9,444.7l-7.2,0c-1.6,0-2.9-0.8-2.9-1.8l0.2-19.6c0-1,1.3-1.8,2.9-1.8l7,0c1.6,0,2.8,0.8,2.8,1.8
					l0,19.6C262.8,443.9,261.5,444.7,259.9,444.7z"/>
				<path class="st2" d="M318.3,444.8l-7.2,0c-1.6,0-2.9-0.8-3-1.8l-0.9-19.6c0-1,1.2-1.8,2.8-1.8l7,0c1.6,0,2.9,0.8,2.9,1.8
					l1.2,19.6C321.1,443.9,319.9,444.8,318.3,444.8z"/>
				<path class="st2" d="M376.6,444.8l-7.2,0c-1.6,0-3-0.8-3.1-1.8l-2.1-19.6c-0.1-1,1.1-1.8,2.6-1.8l7,0c1.6,0,2.9,0.8,3.1,1.8
					l2.3,19.5C379.5,444,378.3,444.8,376.6,444.8z"/>
				<path class="st2" d="M435,444.9l-7.2,0c-1.6,0-3-0.8-3.2-1.8l-3.2-19.5c-0.2-1,1-1.8,2.5-1.8l7,0c1.6,0,3,0.8,3.2,1.8l3.5,19.5
					C437.8,444.1,436.6,444.9,435,444.9z"/>
			</g>
			<g>
				<path class="st2" d="M78.1,481.5l-7.4,0c-1.7,0-2.9-0.8-2.7-1.9l3.7-19.7c0.2-1,1.7-1.9,3.3-1.8l7.3,0c1.6,0,2.8,0.8,2.6,1.9
					l-3.5,19.7C81.2,480.6,79.8,481.5,78.1,481.5z"/>
				<path class="st3" d="M138.7,481.5l-7.4,0c-1.7,0-2.9-0.8-2.8-1.8l2.6-19.7c0.1-1,1.6-1.8,3.2-1.8l7.3,0c1.6,0,2.8,0.8,2.7,1.9
					l-2.3,19.7C141.8,480.6,140.3,481.5,138.7,481.5z"/>
				<path class="st2" d="M199.2,481.5l-7.4,0c-1.7,0-3-0.8-2.9-1.8l1.4-19.6c0.1-1,1.5-1.8,3.1-1.8l7.3,0c1.6,0,2.9,0.8,2.8,1.8
					l-1.1,19.6C202.3,480.7,200.9,481.5,199.2,481.5z"/>
				<path class="st2" d="M259.8,481.5l-7.4,0c-1.7,0-3-0.8-3-1.8l0.2-19.6c0-1,1.3-1.8,3-1.8l7.3,0c1.6,0,2.9,0.8,2.9,1.8l0,19.6
					C262.8,480.7,261.5,481.5,259.8,481.5z"/>
				<path class="st2" d="M320.4,481.5l-7.4,0c-1.7,0-3.1-0.8-3.1-1.8l-0.9-19.6c0-1,1.2-1.8,2.9-1.8l7.3,0c1.6,0,3,0.8,3.1,1.8
					l1.2,19.6C323.3,480.7,322,481.5,320.4,481.5z"/>
				<path class="st2" d="M380.9,481.6l-7.4,0c-1.7,0-3.1-0.8-3.2-1.8l-2.1-19.6c-0.1-1,1.1-1.8,2.7-1.8l7.3,0c1.6,0,3,0.8,3.2,1.8
					l2.3,19.5C383.8,480.7,382.6,481.6,380.9,481.6z"/>
				<path class="st2" d="M441.5,481.6l-7.4,0c-1.7,0-3.1-0.8-3.3-1.8l-3.2-19.5c-0.2-1,1-1.8,2.6-1.8l7.3,0c1.6,0,3.1,0.8,3.3,1.8
					l3.5,19.5C444.4,480.8,443.2,481.6,441.5,481.6z"/>
			</g>
		</g>
	</g>
	<g>
		<path class="st2" d="M401.4,29c-42.2,0-76.4,34.2-76.4,76.4s34.2,76.4,76.4,76.4s76.4-34.2,76.4-76.4S443.6,29,401.4,29z
			 M401.4,169.1c-35.2,0-63.7-28.5-63.7-63.7s28.5-63.7,63.7-63.7s63.7,28.5,63.7,63.7S436.6,169.1,401.4,169.1z"/>
		<circle class="st3" cx="401.4" cy="105.4" r="63.7"/>
		<path class="st2" d="M437.1,83.3c2.1,2.9,1.6,7.1-1,9.3l-38.4,33l-7.4,6.3c-2.7,2.3-6.5,1.8-8.6-1.1l-6.3-8.8l-9.7-13.4
			c-2.1-2.9-1.6-7.1,1-9.3l2.6-2.2c2.7-2.3,6.5-1.8,8.6,1.1l5.8,8.1c2.1,2.9,5.9,3.4,8.6,1.1l33.5-28.8c2.6-2.3,6.5-1.8,8.6,1.1
			L437.1,83.3z"/>
	</g>
	<g>
		<path class="st1" d="M80.4,195.7v99.5h182v-99.5H80.4z M96.1,214.9h92.6v56.3H96.1V214.9z M205.4,294.5v-61.7H249v61.7H205.4z"/>
		<rect x="205.4" y="232.8" class="st4" width="43.6" height="61.7"/>
		<rect x="96.1" y="214.9" class="st4" width="92.6" height="56.3"/>
		<rect x="205.4" y="294.5" class="st2" width="43.6" height="0.7"/>
		<rect x="118.9" y="147.5" class="st4" width="11.4" height="19.6"/>
		<rect x="211.8" y="146.6" class="st4" width="11.4" height="20.5"/>
		<rect x="93.5" y="104.8" class="st1" width="155.1" height="43.2"/>
		<g>
			<path class="st2" d="M143.4,129.5c0,1.7-0.6,3.1-1.8,4.3c-1.2,1.2-3,1.7-5.5,1.7c-4.4,0-6.9-2.2-7.4-6.7l3.5-0.4
				c0.4,2.5,1.7,3.8,3.9,3.8c1.1,0,2-0.3,2.6-0.8c0.6-0.5,0.9-1.1,0.9-1.9c0-0.4-0.1-0.8-0.3-1.1c-0.2-0.3-0.6-0.6-1-0.8
				c-0.4-0.2-1.5-0.5-3.3-1c-1.6-0.4-2.7-0.9-3.4-1.4c-0.7-0.5-1.3-1.1-1.7-1.9c-0.4-0.8-0.6-1.7-0.6-2.6c0-1.1,0.3-2,0.8-2.9
				c0.5-0.9,1.3-1.5,2.3-1.9c1-0.4,2.1-0.7,3.6-0.7c2.1,0,3.8,0.5,5,1.5c1.2,1,1.8,2.5,1.9,4.4l-3.6,0.2c-0.2-1.1-0.5-1.8-1-2.2
				c-0.5-0.4-1.3-0.6-2.3-0.6c-1,0-1.7,0.2-2.3,0.5c-0.5,0.4-0.8,0.8-0.8,1.4c0,0.5,0.2,1,0.7,1.3c0.5,0.4,1.6,0.8,3.3,1.2
				c1.8,0.5,3.1,1,4,1.5c0.8,0.5,1.4,1.2,1.9,2C143.2,127.3,143.4,128.3,143.4,129.5z"/>
			<polygon class="st2" points="159.5,115.6 159.5,118.9 154.1,118.9 154.1,135.2 150.5,135.2 150.5,118.9 145.1,118.9 145.1,115.6 
							"/>
			<path class="st2" d="M175.7,117.9c-1.6-1.8-3.7-2.6-6.3-2.6c-1.8,0-3.3,0.4-4.5,1.1c-1.2,0.7-2.3,1.9-3,3.4
				c-0.8,1.5-1.2,3.4-1.2,5.8c0,3.2,0.9,5.7,2.6,7.6c1.5,1.6,3.6,2.4,6.2,2.4c2.6,0,4.6-0.8,6.1-2.4c1.7-1.8,2.6-4.4,2.6-7.7
				C178.1,122.1,177.3,119.6,175.7,117.9z M173,130.4c-0.9,1.1-2.1,1.7-3.6,1.7c-1.4,0-2.6-0.6-3.6-1.7c-1-1.1-1.4-2.8-1.4-5.1
				c0-2.3,0.5-4,1.4-5.1c0.9-1.1,2.1-1.6,3.6-1.6c1.5,0,2.7,0.5,3.6,1.6c0.9,1.1,1.4,2.8,1.4,5C174.4,127.6,173.9,129.3,173,130.4z"
				/>
			<path class="st2" d="M195,131.3c-0.9-1.5-1.6-2.6-2.1-3.2c-0.5-0.6-1.2-1.1-1.9-1.6c1.5-0.2,2.7-0.8,3.5-1.8
				c0.8-0.9,1.2-2.2,1.2-3.7c0-1.2-0.3-2.3-0.8-3.1c-0.5-0.9-1.2-1.5-2.1-1.8c-0.8-0.4-2.2-0.5-4.2-0.5H181v19.6h3.6V127h0.8
				c0.8,0,1.4,0.1,1.8,0.2c0.4,0.1,0.7,0.4,1.1,0.8c0.3,0.4,1,1.4,1.9,2.9l2.6,4.3h4.3L195,131.3z M187.3,123.9h-2.7v-5h2.8
				c1.6,0,2.6,0,2.9,0.1c0.5,0.1,0.9,0.4,1.1,0.8c0.3,0.4,0.4,0.9,0.4,1.5c0,0.7-0.1,1.2-0.4,1.6c-0.3,0.4-0.6,0.7-1.1,0.8
				C190,123.8,188.9,123.9,187.3,123.9z"/>
			<polygon class="st2" points="212.8,131.8 212.8,135.2 199.1,135.2 199.1,115.6 212.5,115.6 212.5,118.9 202.8,118.9 202.8,123.2 
				211.8,123.2 211.8,126.5 202.8,126.5 202.8,131.8 			"/>
		</g>
		<rect x="63.1" y="294.5" class="st2" width="215.6" height="4.1"/>
		<g>
			<path class="st0" d="M182.5,160.4v38c0,4.2-3.4,7.7-7.7,7.7h-7.6c-4.2,0-7.7-3.4-7.7-7.7v-38H182.5z"/>
			<path class="st0" d="M228.3,160.4v38c0,4.2-3.4,7.7-7.7,7.7h-7.6c-4.2,0-7.7-3.4-7.7-7.7v-38H228.3z"/>
			<path class="st3" d="M205.4,160.4v38c0,4.2-3.4,7.7-7.7,7.7h-7.6c-4.2,0-7.7-3.4-7.7-7.7v-38H205.4z"/>
			<path class="st3" d="M250.9,160.7v38c0,0.5,0,0.9,0.1,1.3c-0.7,3.5-3.8,6.1-7.5,6.1H236c-4.2,0-7.7-3.4-7.7-7.7v-38h22.9v0.2
				H250.9z"/>
			<path class="st5" d="M251.2,160.7v37.8c0,0.5,0,1.1-0.2,1.6c-0.1-0.4-0.1-0.9-0.1-1.3v-38H251.2z"/>
			<path class="st0" d="M273.8,177.8v20.9c0,4.2-3.4,7.7-7.7,7.7h-7.6c-3.8,0-6.9-2.7-7.5-6.3c0.1-0.5,0.2-1,0.2-1.6v-37.8h5.4
				C266.1,160.7,273.8,168.3,273.8,177.8z"/>
			<path class="st2" d="M251.2,160.7v37.8c0,0.5,0,1.1-0.2,1.6c-0.1-0.4-0.1-0.9-0.1-1.3v-38H251.2z"/>
			<path class="st3" d="M159.7,160.4v38c0,4.2-3.4,7.7-7.7,7.7h-7.6c-4.2,0-7.7-3.4-7.7-7.7v-38H159.7z"/>
			<path class="st0" d="M136.8,160.4v38c0,4.2-3.4,7.7-7.7,7.7h-7.6c-4.2,0-7.7-3.4-7.7-7.7v-38H136.8z"/>
			<path class="st3" d="M113.9,160.4v38c0,4.2-3.4,7.7-7.7,7.7h-7.6c-4.2,0-7.7-3.4-7.7-7.7v-38H113.9z"/>
			<path class="st0" d="M91,160.4v38c0,4.2-3.4,7.7-7.7,7.7h-7.5c-4.2,0-7.7-3.4-7.7-7.7v-20.9c0-9.5,7.7-17.2,17.2-17.2H91z"/>
		</g>
	</g>
</g>
</svg>
