<?xml version="1.0" encoding="utf-8"?>
<!-- Generator: Adobe Illustrator 24.1.2, SVG Export Plug-In . SVG Version: 6.00 Build 0)  -->
<svg version="1.1" xmlns="http://www.w3.org/2000/svg" xmlns:xlink="http://www.w3.org/1999/xlink" x="0px" y="0px"
	 viewBox="0 0 512 512" style="enable-background:new 0 0 512 512;" xml:space="preserve">
<style type="text/css">
	.st0{fill:#72778B;}
	.st1{fill:#C3D3EF;}
	.st2{fill:#337AB7;}
	.st3{fill:#E6E6E6;}
	.st4{fill:#95A2BA;}
	.st5{fill:#00FFFF;}
	.st6{fill:#FFFFFF;}
	.st7{fill:#040B2F;}
	.st8{fill:none;}
	.st9{fill:#738AE4;}
</style>
<g id="Layer_3">
	<path class="st0" d="M446.7,382.2c-24.5,37-59.5,66.4-100.8,84.1c-22,9.4-45.9,15.5-70.9,17.6c-6.3,0.5-12.6,0.8-19.1,0.8
		c-20.5,0-40.3-2.7-59.1-7.7c-2-0.5-3.9-1.1-5.9-1.6c21.5-43.5,14.7-78.2,14.7-78.2c-5.5-26.3-24-20.6-24-20.6
		c-19.2,8.9-34.6,10.3-45.4,9.8c-11.8-0.5-16.9-3.3-28.9-1c-2.7,0.5-16.1,3.3-29.4,13.9c0,0-0.1,0.1-0.1,0.1
		c-10.7-13.3-19.9-27.7-27.4-43.1c-14-28.6-22.1-60.5-23-94.3c0,0,0,0,0-0.1c0-2-0.1-3.9-0.1-5.9c0-53.1,18.1-102,48.5-140.8
		c6.3,11.3,11.4,25.6,6.2,37.9c-4.2,9.9-11.6,10.3-19.3,21.5c-12.4,18.2-9,40.7-7.7,48.9c1,6.6,5.4,35.3,28.9,50.8
		c11.2,7.4,21.7,8.5,36.6,10c46.4,4.5,63.5-12.5,76.5-2.3c18.3,14.4-7.6,54.4,11.6,74.6c19.6,20.6,68.4,2,76.5-1.3
		c42.3-17,86.2-61.4,79.5-104.4c-3.2-20.5-17.2-36-22-41.3c-25.1-27.8-53.3-25.5-55.9-42.1c-2.9-18.3,30-30.9,25.3-50.4
		c-2.3-9.6-12.4-14.9-16.9-17.3c-20.4-10.7-33.1,3.7-57.2-4.3c-2.8-0.9-22.9-7.9-32.5-26C198.9,57,198.7,42,197.4,35
		c18.7-5,38.4-7.6,58.6-7.6c65.7,0,125,27.7,166.7,72.2c-26.7,23.4-76.3,76.1-27,108.8c0,0,38.8,36.2-3.2,81
		c0,0-35.6,43.8,13.6,75.8C406.1,365.1,419.5,377.4,446.7,382.2z"/>
	<path class="st1" d="M192.3,424c-1.1,8.2-2.6,18.3-5.6,28.3c-2,6.4-4.6,12.9-7.7,19.1c-36.5-13.1-68.8-35.1-94-63.6
		c4.9-3.8,11.9-8,20.3-9.5c8.4-1.5,8.7,1.4,23,2.4c11.3,0.8,24.8,1.9,38.9-3.9c10.4-4.3,16.1-10.2,20.7-7.3c1.2,0.7,2.7,2.3,4.1,9.5
		C194.1,410.2,192.9,419.4,192.3,424z"/>
	<path class="st1" d="M484.6,256c0,39.4-10,76.4-27.5,108.8c-17.8-3.5-54.8-13.6-58.5-36.6c-1.2-7.5,1.4-14.3,3.9-19
		c9.3-15.5,15.4-29,19.3-38.7c6.6-16.6,7.2-23,7.3-25.7c0.9-15.9-5.5-28.1-8.7-34c-12-22.1-23.9-19-26.9-32.9
		c-4.3-19.4,15.4-41.3,24.2-51.2c1.7-1.9,6.5-7.2,14.4-13.5c0.5-0.4,1-0.8,1.5-1.2C465.5,151.3,484.6,201.4,484.6,256z"/>
	<path class="st1" d="M349.3,277.6C349.3,277.6,349.3,277.6,349.3,277.6C332,323.4,248.5,365.7,224,349
		c-19.2-13.1,8.6-55.5-15.1-76.6c-18-16-47-3-75.4-0.1c-0.9,0.1-1.7,0.2-2.6,0.2c-0.1,0-0.1,0-0.2,0c-0.4,0-0.9,0.1-1.3,0.1
		c-0.6,0-1.1,0.1-1.6,0.1c-0.7,0-1.5,0.1-2.2,0.1c-0.8,0-1.5,0-2.3,0c-0.1,0-0.2,0-0.3,0c-0.5,0-1,0-1.5,0c-0.4,0-0.7,0-1.1,0
		c-0.8,0-1.7-0.1-2.6-0.2c-0.3,0-0.7,0-1-0.1c-0.1,0-0.2,0-0.2,0c-1.9-0.2-3.8-0.5-5.7-0.8c-0.5-0.1-0.9-0.2-1.4-0.3
		c-0.4-0.1-0.8-0.2-1.2-0.3c-0.4-0.1-0.8-0.2-1.1-0.3c-0.4-0.1-0.8-0.2-1.2-0.3c-0.2-0.1-0.5-0.1-0.7-0.2c-0.1,0-0.3-0.1-0.4-0.1
		c-0.7-0.2-1.4-0.5-2.1-0.7c-0.3-0.1-0.6-0.3-1-0.4c-0.5-0.2-0.9-0.4-1.4-0.6c-0.3-0.1-0.6-0.3-0.9-0.4c-0.2-0.1-0.4-0.2-0.6-0.3
		c-0.2-0.1-0.4-0.2-0.6-0.3c-0.4-0.2-0.8-0.4-1.2-0.6c-0.3-0.1-0.6-0.3-0.8-0.5c-0.1-0.1-0.3-0.1-0.4-0.2c-0.3-0.2-0.6-0.4-0.9-0.5
		c-0.1-0.1-0.3-0.2-0.4-0.2c-0.3-0.2-0.6-0.4-1-0.6c-0.4-0.3-0.8-0.6-1.3-0.9c-7.2-5-13.1-12.1-17.6-20.2
		c-9.7-17.7-12.1-40.1-4.5-55.8c7.1-14.7,18.9-14.8,24.1-30.4c7-20.7-9.6-32.2-10-52.7c22.2-25.2,50-45.5,81.3-58.9
		c5.1-2.2,10.3-4.2,15.6-6c10.9,14.6,7.4,43.3,33.4,60c17.9,11.4,38.9,10.1,55.3,9.3c13.3-0.6,23.7-1,27.2,6
		c7.7,15.3-31.2,39.3-22.4,60.8c4.1,10,14.6,9.9,31,20c17.1,10.6,32.9,27.4,40.9,43.9c2.9,6,4.8,12,5.4,17.6
		C353,264,351.9,270.8,349.3,277.6z"/>
</g>
<g id="Layer_5">
	<g>
		<g>
			<g>
				<path class="st2" d="M324.4,273c-7.4,0-13.5,1.3-13.5,3c0,1.7,6,3,13.5,3s13.5-1.3,13.5-3C337.8,274.3,331.8,273,324.4,273z
					 M324.4,277c-3,0-5.5-0.5-5.5-1.1c0-0.6,2.5-1.1,5.5-1.1c3,0,5.5,0.5,5.5,1.1C329.9,276.5,327.4,277,324.4,277z"/>
			</g>
			<path class="st2" d="M345.4,222c-2.6-9.2-11-16-21-16c-10,0-18.5,6.8-21,16c-0.5,1.9-0.8,3.8-0.8,5.8c0,2.4,0.4,4.6,1.1,6.7
				l2,4.4l16.5,36.5c0.9,2,3.8,2,4.7,0l16.5-36.5l2-4.4c0.7-2.1,1.1-4.4,1.1-6.7C346.2,225.8,345.9,223.9,345.4,222z M324.4,239.4
				c-5.4,0-9.8-4.4-9.8-9.8c0-5.4,4.4-9.8,9.8-9.8s9.8,4.4,9.8,9.8C334.2,235.1,329.8,239.4,324.4,239.4z"/>
		</g>
		<g>
			<g>
				<g>
					<path class="st3" d="M213.9,172.5l-10.5,5l15.5,7.3l10.6-5L213.9,172.5z M195.7,181.1l-13.7,6.5l-0.8,0.4l15.8,7.2h0l13.9-6.6
						L195.7,181.1z M178.9,172.9l-14.5,6.7l-0.8,0.4l10.7,4.9v-0.4l0.4-0.2l14.2-6.4L178.9,172.9z M197,164.5l-10.7,4.9l10.3,4.9
						l10.7-4.9L197,164.5z"/>
					<path class="st4" d="M180.5,211.4L180.5,211.4L180.5,211.4L180.5,211.4z M197.2,217.2l-0.2-22.1l0-0.8l-15-6.8l-0.8,0.4h0v9.7
						l-6.9-3.8v-9.4l0.4-0.2l-10.3-4.7l-0.8-0.4v34.7l1.4,0.7h0l6.5-2.9l-6.4-3.1l4.7-2.2l4.6,2.2l2,0.9l4.2-1.9l2.6-1.2l4.2,2
						l-6.7,3.2l9.8,4.7v9.7l-1,0.5l7.7,3.7l0.1,0.1l0.1,0.1l0,0L197.2,217.2z M176.5,203.2l-2.2,1v-8.1l6.2,3.4v5.5L176.5,203.2z
						 M180.5,211.5L180.5,211.5L180.5,211.5L180.5,211.5z M185.4,218.5l-4.9-2.4l-4.8-2.3l-1.4,0.7l-4.9,2.3l4.9,2.3l4.9,2.3h0
						l1.3,0.6l5.1,2.4L185.4,218.5z M180.5,211.4L180.5,211.4L180.5,211.4L180.5,211.4z"/>
					<polygon class="st3" points="229.4,179.8 229.4,214.7 222.5,211.5 229.2,208.3 225.1,206.3 218.8,209.2 218.2,209.4 
						212.7,206.8 211.7,206.3 207,208.5 211.7,210.8 213.4,211.7 211.7,212.4 204,215.9 204,221.8 208.4,224.3 208.4,218.1 
						208.4,218.1 211.7,216.6 217.7,213.8 218.8,214.3 224.8,217.3 218.8,220.2 216.1,221.6 211.7,223.8 208,225.6 208,225.5 
						204,223.3 204,227.5 197.4,230.8 197.3,230.1 197.2,218 197,195.1 197,195.1 210.9,188.6 211.4,203.6 218.8,200.1 218.8,184.8 
											"/>
					<polygon class="st5" points="213.4,211.7 211.7,212.4 211.7,210.8 					"/>
					<polygon class="st5" points="218.8,214.3 218.8,220.2 216.1,221.6 211.7,223.8 211.7,216.6 217.7,213.8 					"/>
					<polygon class="st5" points="218.8,204.3 218.8,209.2 218.2,209.4 212.7,206.8 					"/>
					<polygon class="st2" points="218.8,184.8 218.8,200.1 211.4,203.6 210.9,188.6 195.7,181.1 182,187.6 181.2,187.9 181.2,187.9 
						181.2,197.6 174.3,193.8 174.3,184.4 174.7,184.2 188.9,177.8 178.9,172.9 186.3,169.4 196.6,174.3 207.3,169.4 213.9,172.5 
						203.3,177.5 					"/>
					<polygon class="st2" points="180.5,199.5 180.5,205.1 176.5,203.2 174.3,204.2 174.3,196.1 					"/>
					<polygon class="st5" points="180.5,216 180.5,222.7 178.4,221.8 174.3,219.8 174.3,214.4 175.7,213.7 					"/>
					<polygon class="st5" points="180.5,205.1 180.5,207.5 176.3,209.4 174.3,208.5 174.3,204.2 176.5,203.2 					"/>
				</g>
				<g>
					<polygon class="st3" points="213.4,211.7 211.7,212.4 204,215.9 204,216.1 197.2,213 207,208.5 211.7,210.8 					"/>
					<polygon class="st3" points="227.3,218.5 218.5,222.7 216.1,221.6 211.7,219.6 208.4,218.1 211.7,216.6 217.7,213.8 
						218.8,214.3 224.8,217.3 					"/>
					<polygon class="st3" points="225.1,206.3 218.8,209.2 218.2,209.4 212.7,206.8 211.7,206.3 218.5,203.2 					"/>
					<polygon class="st3" points="239.1,213 232.4,216.1 229.4,214.7 222.5,211.5 229.2,208.3 229.2,208.3 229.4,208.4 					"/>
					<polygon class="st4" points="208,225.5 204,223.3 204,238.4 197.2,235.1 197.2,213 204,216.1 204,221.8 208.4,224.3 
						208.4,218.1 208.4,218.1 211.7,219.6 216.1,221.6 218.5,222.7 218.7,245.4 208,240.2 					"/>
					<polygon class="st3" points="239.1,213 239.1,235.3 232.4,238.6 232.4,228.5 227.8,230.4 227.8,240.9 218.7,245.4 218.5,222.7 
						227.3,218.5 227.3,218.5 227.6,228 232.4,225.8 232.4,216.1 					"/>
					<polygon class="st2" points="232.4,228.5 232.4,238.6 227.8,240.9 227.8,230.4 					"/>
					<polygon class="st2" points="232.4,216.1 232.4,225.8 227.6,228 227.3,218.5 227.3,218.5 224.8,217.3 218.8,214.3 217.7,213.8 
						211.7,216.6 208.4,218.1 208.4,218.1 208.4,224.3 204,221.8 204,215.9 211.7,212.4 213.4,211.7 211.7,210.8 207,208.5 
						211.7,206.3 212.7,206.8 218.2,209.4 218.8,209.2 225.1,206.3 229.2,208.3 222.5,211.5 229.4,214.7 					"/>
					<polygon class="st2" points="208,225.5 208,240.2 204,238.4 204,223.3 					"/>
				</g>
				<g>
					<polygon class="st3" points="183.1,206.3 180.5,207.5 176.3,209.4 174.3,208.5 169.7,206.3 174.3,204.2 176.5,203.2 
						180.5,205.1 					"/>
					<polygon class="st3" points="171.4,211.6 164.9,214.5 164.9,214.5 162.1,215.8 162.1,216.1 155.3,213 163.6,209.1 165,208.5 
											"/>
					<polygon class="st3" points="185.4,218.5 180.5,220.8 179.2,221.4 179.2,221.4 178.4,221.8 176.5,222.7 166.5,218.1 
						166.5,218.1 169.4,216.7 174.3,214.4 175.7,213.7 180.5,216 					"/>
					<polygon class="st6" points="180.6,211.4 180.5,211.5 180.5,211.4 					"/>
					<polygon class="st3" points="197.1,212.9 190.4,216.1 180.6,211.4 187.3,208.3 					"/>
					<polygon class="st4" points="166,240.2 166,225.5 162.1,223.3 162.1,238.3 155.3,235 155.3,213 162.1,216.1 162.1,221.8 
						166.5,224.2 166.5,218.1 176.5,222.7 176.7,245.3 					"/>
					<polygon class="st3" points="197.1,212.9 197.1,235.3 190.4,238.6 190.4,228.5 185.8,230.3 185.8,240.9 176.7,245.3 
						176.5,222.7 178.4,221.8 179.2,221.4 179.2,221.4 180.5,220.8 185.4,218.5 185.6,224.4 185.7,228 189.4,226.3 190.4,225.8 
						190.4,216.1 					"/>
					<polygon class="st5" points="180.6,211.4 180.5,211.5 180.5,211.4 					"/>
					<polygon class="st2" points="190.4,228.5 190.4,238.6 185.8,240.9 185.8,230.3 					"/>
					<polygon class="st2" points="190.4,216.1 190.4,225.8 189.4,226.3 185.7,228 185.6,224.4 185.4,218.5 180.5,216 175.7,213.7 
						174.3,214.4 169.4,216.7 166.5,218.1 166.5,224.2 162.1,221.8 162.1,215.8 164.9,214.5 164.9,214.5 171.4,211.6 165,208.5 
						169.7,206.3 174.3,208.5 176.3,209.4 180.5,207.5 183.1,206.3 187.3,208.3 180.6,211.4 180.5,211.4 180.5,211.5 180.6,211.4 
											"/>
					<polygon class="st5" points="180.6,211.4 180.5,211.5 180.5,211.4 					"/>
					<polygon class="st2" points="166,225.5 166,240.2 162.1,238.3 162.1,223.3 					"/>
				</g>
			</g>
			<path class="st2" d="M280.7,203.3l-3.4-1.7h-34.6l0.1,45.3l-64-0.1l-27.1-0.1v18.1l4.6,4.7h17.2c-0.3-1.2-0.4-2.5-0.4-3.8
				c0-6.1,2.9-11.4,7.4-14.8c3.1-2.3,6.9-3.7,11.1-3.7c10.2,0,18.5,8.3,18.5,18.5c0,1.3-0.1,2.6-0.4,3.8h43.7
				c-0.7-2-1.1-4.1-1.1-6.4c0-10.2,8.3-18.5,18.5-18.5c7.6,0,14.1,4.5,16.9,11c1,2.3,1.6,4.8,1.6,7.5c0,2.2-0.4,4.4-1.1,6.4h7
				l4.2-4.4v-31.3L280.7,203.3z M256.1,229.9l-1.2-18.9h19.7l10.5,18.9H256.1z"/>
			<path class="st7" d="M191.7,249.6c-3.8,0-7.3,1.3-10,3.5c-3.6,2.9-6,7.4-6,12.4c0,1.3,0.2,2.6,0.5,3.8c1.7,7,8,12.1,15.5,12.1
				c0.8,0,1.7-0.1,2.5-0.2c6.4-1,11.5-5.8,13.1-12c0.3-1.2,0.5-2.5,0.5-3.8C207.7,256.8,200.5,249.6,191.7,249.6z M195.7,269.4
				c-1,1.1-2.5,1.8-4.1,1.8c-0.8,0-1.6-0.2-2.3-0.5v0l-1.8-1.3c-0.9-1-1.5-2.4-1.5-3.8c0-3.1,2.5-5.6,5.6-5.6c3.1,0,5.6,2.5,5.6,5.6
				C197.3,267.1,196.7,268.5,195.7,269.4z"/>
			<path class="st7" d="M270.8,247.1c-8.8,0-16,7.2-16,16c0,4.6,2,8.8,5.1,11.7c2.9,2.7,6.7,4.3,10.9,4.3c8.8,0,16-7.2,16-16
				C286.8,254.3,279.7,247.1,270.8,247.1z M270.8,268.7c-3.1,0-5.6-2.5-5.6-5.6c0-3.1,2.5-5.6,5.6-5.6c3.1,0,5.6,2.5,5.6,5.6
				C276.4,266.2,273.9,268.7,270.8,268.7z"/>
			<polygon class="st8" points="285.1,229.9 256.1,229.9 254.9,210.9 274.6,210.9 			"/>
		</g>
	</g>
	<g>
		<g>
			<path class="st9" d="M174.3,68.2c-5.3,0-9.5,0.9-9.5,2.1s4.3,2.1,9.5,2.1s9.5-0.9,9.5-2.1S179.6,68.2,174.3,68.2z M174.3,71
				c-2.1,0-3.9-0.3-3.9-0.8c0-0.4,1.7-0.8,3.9-0.8s3.9,0.3,3.9,0.8C178.2,70.7,176.4,71,174.3,71z"/>
		</g>
		<path class="st9" d="M189.2,32.1c-1.8-6.5-7.8-11.3-14.9-11.3c-7.1,0-13.1,4.8-14.9,11.3c-0.4,1.3-0.6,2.7-0.6,4.1
			c0,1.7,0.3,3.3,0.8,4.8l1.4,3.1l11.7,25.8c0.6,1.4,2.7,1.4,3.3,0l11.7-25.8L189,41c0.5-1.5,0.8-3.1,0.8-4.8
			C189.7,34.8,189.5,33.4,189.2,32.1z M174.3,44.4c-3.8,0-6.9-3.1-6.9-6.9c0-3.8,3.1-6.9,6.9-6.9s6.9,3.1,6.9,6.9
			C181.2,41.3,178.1,44.4,174.3,44.4z"/>
	</g>
	<g>
		<g>
			<path class="st9" d="M182.5,156.5c-5.3,0-9.5,0.9-9.5,2.1s4.3,2.1,9.5,2.1c5.3,0,9.5-0.9,9.5-2.1S187.8,156.5,182.5,156.5z
				 M182.5,159.4c-2.1,0-3.9-0.3-3.9-0.8c0-0.4,1.7-0.8,3.9-0.8s3.9,0.3,3.9,0.8C186.4,159,184.7,159.4,182.5,159.4z"/>
		</g>
		<path class="st9" d="M197.4,120.4c-1.8-6.5-7.8-11.3-14.9-11.3c-7.1,0-13.1,4.8-14.9,11.3c-0.4,1.3-0.6,2.7-0.6,4.1
			c0,1.7,0.3,3.3,0.8,4.8l1.4,3.1l11.7,25.8c0.6,1.4,2.7,1.4,3.3,0l11.7-25.8l1.4-3.1c0.5-1.5,0.8-3.1,0.8-4.8
			C198,123.1,197.8,121.7,197.4,120.4z M182.5,132.8c-3.8,0-6.9-3.1-6.9-6.9c0-3.8,3.1-6.9,6.9-6.9c3.8,0,6.9,3.1,6.9,6.9
			C189.5,129.7,186.3,132.8,182.5,132.8z"/>
	</g>
	<g>
		<g>
			<path class="st9" d="M270.9,121.1c-5.3,0-9.5,0.9-9.5,2.1c0,1.2,4.3,2.1,9.5,2.1s9.5-0.9,9.5-2.1
				C280.4,122.1,276.2,121.1,270.9,121.1z M270.9,124c-2.1,0-3.9-0.3-3.9-0.8c0-0.4,1.7-0.8,3.9-0.8c2.1,0,3.9,0.3,3.9,0.8
				C274.8,123.7,273,124,270.9,124z"/>
		</g>
		<path class="st9" d="M285.8,85.1c-1.8-6.5-7.8-11.3-14.9-11.3c-7.1,0-13.1,4.8-14.9,11.3c-0.4,1.3-0.6,2.7-0.6,4.1
			c0,1.7,0.3,3.3,0.8,4.8l1.4,3.1l11.7,25.8c0.6,1.4,2.7,1.4,3.3,0l11.7-25.8l1.4-3.1c0.5-1.5,0.8-3.1,0.8-4.8
			C286.3,87.8,286.1,86.4,285.8,85.1z M270.9,97.4c-3.8,0-6.9-3.1-6.9-6.9c0-3.8,3.1-6.9,6.9-6.9s6.9,3.1,6.9,6.9
			C277.8,94.3,274.7,97.4,270.9,97.4z"/>
	</g>
	<g>
		<g>
			<path class="st9" d="M249,329c-5.3,0-9.5,0.9-9.5,2.1c0,1.2,4.3,2.1,9.5,2.1c5.3,0,9.5-0.9,9.5-2.1
				C258.5,329.9,254.2,329,249,329z M249,331.8c-2.1,0-3.9-0.3-3.9-0.8c0-0.4,1.7-0.8,3.9-0.8s3.9,0.3,3.9,0.8
				C252.8,331.5,251.1,331.8,249,331.8z"/>
		</g>
		<path class="st9" d="M263.8,292.9c-1.8-6.5-7.8-11.3-14.9-11.3c-7.1,0-13.1,4.8-14.9,11.3c-0.4,1.3-0.6,2.7-0.6,4.1
			c0,1.7,0.3,3.3,0.8,4.8l1.4,3.1l11.7,25.8c0.6,1.4,2.7,1.4,3.3,0l11.7-25.8l1.4-3.1c0.5-1.5,0.8-3.1,0.8-4.8
			C264.4,295.6,264.2,294.2,263.8,292.9z M249,305.2c-3.8,0-6.9-3.1-6.9-6.9c0-3.8,3.1-6.9,6.9-6.9c3.8,0,6.9,3.1,6.9,6.9
			C255.9,302.1,252.8,305.2,249,305.2z"/>
	</g>
	<g>
		<g>
			<path class="st9" d="M92,225.3c-5.3,0-9.5,0.9-9.5,2.1s4.3,2.1,9.5,2.1s9.5-0.9,9.5-2.1S97.3,225.3,92,225.3z M92,228.2
				c-2.1,0-3.9-0.3-3.9-0.8c0-0.4,1.7-0.8,3.9-0.8s3.9,0.3,3.9,0.8C95.9,227.8,94.2,228.2,92,228.2z"/>
		</g>
		<path class="st9" d="M106.9,189.2c-1.8-6.5-7.8-11.3-14.9-11.3s-13.1,4.8-14.9,11.3c-0.4,1.3-0.6,2.7-0.6,4.1
			c0,1.7,0.3,3.3,0.8,4.8l1.4,3.1L90.4,227c0.6,1.4,2.7,1.4,3.3,0l11.7-25.8l1.4-3.1c0.5-1.5,0.8-3.1,0.8-4.8
			C107.5,191.9,107.3,190.6,106.9,189.2z M92,201.6c-3.8,0-6.9-3.1-6.9-6.9c0-3.8,3.1-6.9,6.9-6.9s6.9,3.1,6.9,6.9
			C99,198.5,95.9,201.6,92,201.6z"/>
	</g>
	<g>
		<g>
			<path class="st9" d="M439.6,149c-5.3,0-9.5,0.9-9.5,2.1c0,1.2,4.3,2.1,9.5,2.1s9.5-0.9,9.5-2.1C449.2,149.9,444.9,149,439.6,149z
				 M439.6,151.8c-2.1,0-3.9-0.3-3.9-0.8c0-0.4,1.7-0.8,3.9-0.8c2.1,0,3.9,0.3,3.9,0.8C443.5,151.5,441.8,151.8,439.6,151.8z"/>
		</g>
		<path class="st9" d="M454.5,112.9c-1.8-6.5-7.8-11.3-14.9-11.3c-7.1,0-13.1,4.8-14.9,11.3c-0.4,1.3-0.6,2.7-0.6,4.1
			c0,1.7,0.3,3.3,0.8,4.8l1.4,3.1l11.7,25.8c0.6,1.4,2.7,1.4,3.3,0l11.7-25.8l1.4-3.1c0.5-1.5,0.8-3.1,0.8-4.8
			C455.1,115.6,454.9,114.2,454.5,112.9z M439.6,125.2c-3.8,0-6.9-3.1-6.9-6.9c0-3.8,3.1-6.9,6.9-6.9c3.8,0,6.9,3.1,6.9,6.9
			C446.6,122.1,443.5,125.2,439.6,125.2z"/>
	</g>
	<g>
		<g>
			<path class="st9" d="M408.7,320.3c-5.3,0-9.5,0.9-9.5,2.1c0,1.2,4.3,2.1,9.5,2.1s9.5-0.9,9.5-2.1
				C418.3,321.2,414,320.3,408.7,320.3z M408.7,323.1c-2.1,0-3.9-0.3-3.9-0.8c0-0.4,1.7-0.8,3.9-0.8c2.1,0,3.9,0.3,3.9,0.8
				C412.6,322.8,410.9,323.1,408.7,323.1z"/>
		</g>
		<path class="st9" d="M423.6,284.2c-1.8-6.5-7.8-11.3-14.9-11.3c-7.1,0-13.1,4.8-14.9,11.3c-0.4,1.3-0.6,2.7-0.6,4.1
			c0,1.7,0.3,3.3,0.8,4.8l1.4,3.1l11.7,25.8c0.6,1.4,2.7,1.4,3.3,0l11.7-25.8l1.4-3.1c0.5-1.5,0.8-3.1,0.8-4.8
			C424.2,286.9,424,285.5,423.6,284.2z M408.7,296.5c-3.8,0-6.9-3.1-6.9-6.9s3.1-6.9,6.9-6.9s6.9,3.1,6.9,6.9
			S412.6,296.5,408.7,296.5z"/>
	</g>
	<g>
		<g>
			<path class="st9" d="M462,248.6c-5.3,0-9.5,0.9-9.5,2.1c0,1.2,4.3,2.1,9.5,2.1s9.5-0.9,9.5-2.1
				C471.6,249.5,467.3,248.6,462,248.6z M462,251.4c-2.1,0-3.9-0.3-3.9-0.8c0-0.4,1.7-0.8,3.9-0.8c2.1,0,3.9,0.3,3.9,0.8
				C465.9,251.1,464.2,251.4,462,251.4z"/>
		</g>
		<path class="st9" d="M476.9,212.5c-1.8-6.5-7.8-11.3-14.9-11.3c-7.1,0-13.1,4.8-14.9,11.3c-0.4,1.3-0.6,2.7-0.6,4.1
			c0,1.7,0.3,3.3,0.8,4.8l1.4,3.1l11.7,25.8c0.6,1.4,2.7,1.4,3.3,0l11.7-25.8l1.4-3.1c0.5-1.5,0.8-3.1,0.8-4.8
			C477.5,215.2,477.3,213.8,476.9,212.5z M462,224.8c-3.8,0-6.9-3.1-6.9-6.9c0-3.8,3.1-6.9,6.9-6.9s6.9,3.1,6.9,6.9
			C469,221.7,465.9,224.8,462,224.8z"/>
	</g>
	<g>
		<g>
			<path class="st9" d="M104,407.4c-5.3,0-9.5,0.9-9.5,2.1c0,1.2,4.3,2.1,9.5,2.1s9.5-0.9,9.5-2.1
				C113.5,408.4,109.2,407.4,104,407.4z M104,410.3c-2.1,0-3.9-0.3-3.9-0.8c0-0.4,1.7-0.8,3.9-0.8s3.9,0.3,3.9,0.8
				C107.9,409.9,106.1,410.3,104,410.3z"/>
		</g>
		<path class="st9" d="M118.9,371.3c-1.8-6.5-7.8-11.3-14.9-11.3s-13.1,4.8-14.9,11.3c-0.4,1.3-0.6,2.7-0.6,4.1
			c0,1.7,0.3,3.3,0.8,4.8l1.4,3.1l11.7,25.8c0.6,1.4,2.7,1.4,3.3,0l11.7-25.8l1.4-3.1c0.5-1.5,0.8-3.1,0.8-4.8
			C119.4,374,119.2,372.7,118.9,371.3z M104,383.7c-3.8,0-6.9-3.1-6.9-6.9s3.1-6.9,6.9-6.9s6.9,3.1,6.9,6.9S107.8,383.7,104,383.7z"
			/>
	</g>
	<g>
		<g>
			<path class="st9" d="M169.4,429c-5.3,0-9.5,0.9-9.5,2.1c0,1.2,4.3,2.1,9.5,2.1c5.3,0,9.5-0.9,9.5-2.1
				C178.9,429.9,174.7,429,169.4,429z M169.4,431.8c-2.1,0-3.9-0.3-3.9-0.8c0-0.4,1.7-0.8,3.9-0.8s3.9,0.3,3.9,0.8
				C173.3,431.5,171.6,431.8,169.4,431.8z"/>
		</g>
		<path class="st9" d="M184.3,392.9c-1.8-6.5-7.8-11.3-14.9-11.3c-7.1,0-13.1,4.8-14.9,11.3c-0.4,1.3-0.6,2.7-0.6,4.1
			c0,1.7,0.3,3.3,0.8,4.8l1.4,3.1l11.7,25.8c0.6,1.4,2.7,1.4,3.3,0l11.7-25.8l1.4-3.1c0.5-1.5,0.8-3.1,0.8-4.8
			C184.9,395.6,184.7,394.2,184.3,392.9z M169.4,405.2c-3.8,0-6.9-3.1-6.9-6.9s3.1-6.9,6.9-6.9c3.8,0,6.9,3.1,6.9,6.9
			S173.2,405.2,169.4,405.2z"/>
	</g>
</g>
</svg>
