<?xml version="1.0" encoding="utf-8"?>
<!-- Generator: Adobe Illustrator 27.3.1, SVG Export Plug-In . SVG Version: 6.00 Build 0)  -->
<svg version="1.1" id="Layer_1" xmlns="http://www.w3.org/2000/svg" xmlns:xlink="http://www.w3.org/1999/xlink" x="0px" y="0px"
	 viewBox="0 0 512 512" style="enable-background:new 0 0 512 512;" xml:space="preserve">
<style type="text/css">
	.st0{fill:#FFFFFF;}
</style>
<g>
	<path class="st0" d="M256,12.6c-134.4,0-243.4,109-243.4,243.4s109,243.4,243.4,243.4s243.4-109,243.4-243.4S390.4,12.6,256,12.6z
		 M256,476.9C134,476.9,35.1,378,35.1,256S134,35.1,256,35.1S476.9,134,476.9,256S378,476.9,256,476.9z"/>
	<g>
		<path class="st0" d="M406.8,119.9c-28.9-32-67.9-54.8-111.9-63.3c-12.6-2.5-25.6-3.7-38.8-3.7c-13,0-25.8,1.2-38.2,3.6
			c-33,6.3-63.1,20.5-88.4,40.7c-8.1,6.4-15.6,13.4-22.6,20.9c-33.5,36.2-54,84.7-54,137.9c0,53.3,20.5,101.7,54,138
			c29.1,31.5,68.1,53.7,112,61.8c7.5,1.4,15.1,2.4,22.9,2.9c4.7,0.3,9.5,0.5,14.3,0.5c13,0,25.8-1.2,38.1-3.6
			c44.4-8.4,83.6-31.2,112.7-63.5c32.5-36,52.3-83.7,52.3-136.1C459.1,203.6,439.3,155.9,406.8,119.9z M367.8,206.8h-30.5
			c0.5,3.6,0.8,7.2,0.8,11c0,2.7-0.1,5.3-0.4,7.9h30.1v20.9h-35.4c-3.8,9-9.3,17.1-16,23.9c-0.4,0.4-0.8,0.8-1.2,1.1
			c-1.4,1.4-2.9,2.7-4.4,3.9v0c-7.3,6-15.8,10.6-25.1,13.5c-7,2.2-14.4,3.3-22.1,3.3h-36.1v76.5h-53.6V246.5h-29.7v-20.9h29.7v-18.9
			h-29.7V186h29.7v-42.7h89.7c18.7,0,35.9,6.9,48.9,18.3c0.9,0.8,1.8,1.6,2.6,2.4c6.5,6.3,11.9,13.7,15.8,22h36.8V206.8z"/>
		<g>
			<path class="st0" d="M296.3,246.5c-0.8,1-1.7,1.9-2.6,2.8c-4.4,4.4-9.8,8-15.8,10.2c-4.9,1.9-10.3,2.9-15.8,2.9h-34.6v-15.9
				H296.3z"/>
			<path class="st0" d="M306.8,217.8c0,2.7-0.2,5.3-0.7,7.9h-78.6v-18.9h77.9C306.3,210.3,306.8,214,306.8,217.8z"/>
			<path class="st0" d="M293.5,186h-66V173h34.6C274.3,173,285.4,178,293.5,186z"/>
		</g>
	</g>
</g>
</svg>
