<?xml version="1.0" encoding="utf-8"?>
<!-- Generator: Adobe Illustrator 27.3.1, SVG Export Plug-In . SVG Version: 6.00 Build 0)  -->
<svg version="1.1" id="Layer_2" xmlns="http://www.w3.org/2000/svg" xmlns:xlink="http://www.w3.org/1999/xlink" x="0px" y="0px"
	 viewBox="0 0 512 512" style="enable-background:new 0 0 512 512;" xml:space="preserve">
<style type="text/css">
	.st0{fill:#72778B;}
	.st1{fill:#68A4FF;}
	.st2{fill:none;}
	.st3{fill:#FFFFFF;}
</style>
<path class="st0" d="M486.3,130.5v101.1H25.7V130.5c0-15.8,10.4-28.6,23.3-28.6h48.3V41.5c0-6.6,4.3-11.9,9.7-11.9h15.4
	c5.4,0,9.7,5.3,9.7,11.9v60.5h248.1V37.5c0-6.6,4.3-11.9,9.7-11.9h15.4c5.4,0,9.7,5.3,9.7,11.9v64.4h48
	C475.9,101.9,486.3,114.7,486.3,130.5z"/>
<path class="st1" d="M465,486.4H47c-11.8,0-21.3-9.5-21.3-21.3V231.6h460.7v233.5C486.3,476.9,476.8,486.4,465,486.4z"/>
<g>
	<path class="st2" d="M255.9,437.9c-5.2,0-9.4,4.2-9.4,9.4c0,5.2,4.2,9.4,9.4,9.4c5.2,0,9.4-4.2,9.4-9.4
		C265.3,442,261.1,437.9,255.9,437.9z"/>
	<path class="st0" d="M299.4,243.5h-86.9c-11,0-20,8.9-20,20v181.2c0,11,8.9,20,20,20h86.9c11,0,20-8.9,20-20V263.5
		C319.4,252.5,310.5,243.5,299.4,243.5z M238.4,251.6c0.7-0.7,1.6-1.1,2.6-1.1h29.8c2.1,0,3.7,1.7,3.7,3.7c0,1-0.4,2-1.1,2.6
		c-0.7,0.7-1.6,1.1-2.6,1.1H241c-2.1,0-3.7-1.7-3.7-3.7C237.3,253.2,237.7,252.3,238.4,251.6z M255.9,456.6c-5.2,0-9.3-4.2-9.3-9.4
		c0-5.2,4.2-9.3,9.3-9.3c5.2,0,9.4,4.2,9.4,9.3C265.3,452.4,261.1,456.6,255.9,456.6z M309.5,426.9h-107V265h107V426.9z"/>
	<path class="st3" d="M274.6,254.3c0,1-0.4,2-1.1,2.6c-0.7,0.7-1.6,1.1-2.6,1.1H241c-2.1,0-3.7-1.7-3.7-3.7c0-1,0.4-2,1.1-2.6
		c0.7-0.7,1.6-1.1,2.6-1.1h29.8C272.9,250.5,274.6,252.2,274.6,254.3z"/>
	<path class="st3" d="M202.4,265v161.9h107V265H202.4z M234,330l57.2,0c0.6,0,1.1,0.6,1,1.2l-4.9,22.3c-0.1,0.4-0.4,0.7-0.9,0.8
		l-44.2,4.6c-0.5,0.1-0.9-0.2-1.1-0.7l-8-26.9C232.9,330.7,233.3,330,234,330z"/>
	<circle class="st3" cx="255.9" cy="447.2" r="9.4"/>
	<g>
		<path class="st1" d="M234.7,378.9c-4.1,0-7.5,3.3-7.5,7.5c0,4.1,3.3,7.5,7.5,7.5c4.1,0,7.5-3.3,7.5-7.5
			C242.2,382.2,238.9,378.9,234.7,378.9z M234.7,388.7c-1.3,0-2.4-1.1-2.4-2.4c0-1.3,1.1-2.4,2.4-2.4c1.3,0,2.4,1.1,2.4,2.4
			C237.1,387.7,236,388.7,234.7,388.7z"/>
		<path class="st1" d="M236.3,366.2l5.5-0.7l8.2-1l41.3-4.9c0.8-0.1,1.4-0.6,1.6-1.4l7.8-32.6c0.3-1.2-0.6-2.3-1.8-2.3h-68.3
			l-1.7-6.2l-0.7-2.7c-0.1-0.5-0.6-0.8-1.1-0.8h-12.9c-1.6,0-2.8,1.3-2.8,2.8c0,0.8,0.3,1.5,0.8,2c0.5,0.5,1.2,0.8,2,0.8h9.4l0.7,4
			l10.6,37.5c-4.3,1.7-7.5,5.4-8.5,9.9c-0.2,0.9-0.3,1.9-0.3,2.8c0,0.5,0,0.9,0.1,1.4c0.1,0.8,0.8,1.5,1.6,1.5H290
			c1.7,0,3.1-1.4,3.1-3.1c0-0.7-0.3-1.4-0.8-1.8c-0.5-0.5-1.1-0.8-1.8-0.8h-58.7C232.6,368.8,234.2,367.2,236.3,366.2z M233,331.3
			c-0.2-0.6,0.3-1.3,1-1.3l57.2,0c0.6,0,1.1,0.6,1,1.2l-4.9,22.3c-0.1,0.4-0.4,0.7-0.9,0.8l-44.2,4.6c-0.5,0.1-0.9-0.2-1.1-0.7
			L233,331.3z"/>
		<path class="st3" d="M292.1,331.2l-4.9,22.3c-0.1,0.4-0.4,0.7-0.9,0.8l-44.2,4.6c-0.5,0.1-0.9-0.2-1.1-0.7l-8-26.9
			c-0.2-0.6,0.3-1.3,1-1.3l57.2,0C291.8,330,292.2,330.6,292.1,331.2z"/>
		<path class="st1" d="M285.7,378.9c-4.1,0-7.5,3.3-7.5,7.5c0,4.1,3.3,7.5,7.5,7.5c4.1,0,7.5-3.3,7.5-7.5
			C293.1,382.2,289.8,378.9,285.7,378.9z M285.7,388.7c-1.3,0-2.4-1.1-2.4-2.4c0-1.3,1.1-2.4,2.4-2.4c1.3,0,2.4,1.1,2.4,2.4
			C288,387.7,287,388.7,285.7,388.7z"/>
	</g>
</g>
</svg>
