<svg width="222" height="222" viewBox="0 0 222 222" fill="none" xmlns="http://www.w3.org/2000/svg">
<path d="M147.381 146.812L130.08 172.871L138.752 203.483H199.932V171.874C199.932 171.918 199.932 159.734 147.381 146.812ZM73.6266 146.812C26.9285 157.609 22.0723 169.576 22.0723 169.576L23.0262 203.483L82.6887 204.914L91.7508 173.262L73.6266 146.812ZM123.533 176.34H98.3414L90.45 203.483H131.815L123.533 176.34ZM110.699 153.36L102.114 168.622H119.674L110.699 153.36ZM143.132 132.504C131.945 146.205 117.463 148.894 117.463 148.894L126.525 165.327L144.693 137.143L143.132 132.504ZM78.6563 132.504L76.5316 137.534L95.4363 165.327L104.325 148.894C90.2332 146.986 78.6563 132.504 78.6563 132.504Z" fill="#337AB7"/>
<path d="M139.227 99.8555C138.88 100.419 138.49 100.939 138.1 101.46C138.1 101.416 138.1 101.33 138.143 101.286C138.533 100.809 138.88 100.332 139.227 99.8555Z" fill="#337AB7"/>
<path d="M156.84 73.0594C156.84 79.6934 155.886 86.0238 154.152 91.9207C152.591 97.2539 150.379 102.197 147.648 106.663C143.875 119.411 133.989 138.619 108.581 142.174C108.581 142.174 72.6359 138.445 67.7797 91.834C66.5656 87.7582 65.7852 83.4656 65.3949 79.043C65.3949 79.043 65.3949 79.043 65.3949 78.9996C65.2215 77.0484 65.1348 75.0539 65.1348 73.016C65.1348 46.957 79.7035 25.0605 99.432 18.8168C99.4754 18.8168 99.5188 18.8168 99.5188 18.7734C103.334 17.6895 107.323 17.0824 111.486 17.0391C136.591 17.3859 156.84 42.3176 156.84 73.0594Z" fill="#BFBFBF"/>
</svg>
