<?xml version="1.0" encoding="utf-8"?>
<!-- Generator: Adobe Illustrator 24.1.2, SVG Export Plug-In . SVG Version: 6.00 Build 0)  -->
<svg version="1.1" xmlns="http://www.w3.org/2000/svg" xmlns:xlink="http://www.w3.org/1999/xlink" x="0px" y="0px"
	 viewBox="0 0 512 512" style="enable-background:new 0 0 512 512;" xml:space="preserve">
<style type="text/css">
	.st0{fill:none;stroke:#0FECF4;stroke-width:25;stroke-linecap:round;stroke-linejoin:round;stroke-miterlimit:10;}
	.st1{fill:none;stroke:#FFFFFF;stroke-width:10;stroke-linecap:round;stroke-linejoin:round;stroke-miterlimit:10;}
	.st2{fill:#FFFFFF;}
	.st3{fill:#FFFFFF;stroke:#FFFFFF;stroke-width:5;stroke-miterlimit:10;}
</style>
<g id="Layer_2">
	<polyline class="st0" points="334.7,170.7 472,170.7 472,297.5 	"/>
	<polyline class="st0" points="40,462 190.5,302.5 268.5,382.2 456.3,187.1 	"/>
	<circle class="st1" cx="151.8" cy="146.4" r="96.3"/>
	<g>
		<path class="st2" d="M119.6,95.7c7.9-1.3,18.2-2.4,31.3-2.4c16.1,0,28,3.6,35.5,10.2c6.9,5.8,11.1,14.7,11.1,25.6
			c0,11.1-3.4,19.8-9.8,26.2c-8.6,8.9-22.7,13.5-38.6,13.5c-4.9,0-9.4-0.2-13.1-1.1v49.1h-16.3V95.7z M136,154.8
			c3.6,0.9,8.1,1.3,13.5,1.3c19.7,0,31.7-9.3,31.7-26.2c0-16.2-11.8-24-29.8-24c-7.1,0-12.6,0.5-15.4,1.3V154.8z"/>
	</g>
	<line class="st3" x1="101.9" y1="120.3" x2="209.5" y2="120.3"/>
	<line class="st3" x1="101.9" y1="141.9" x2="209.5" y2="141.9"/>
</g>
<g id="Layer_3">
</g>
</svg>
