<?xml version="1.0" encoding="utf-8"?>
<!-- Generator: Adobe Illustrator 24.1.2, SVG Export Plug-In . SVG Version: 6.00 Build 0)  -->
<svg version="1.1" xmlns="http://www.w3.org/2000/svg" xmlns:xlink="http://www.w3.org/1999/xlink" x="0px" y="0px"
	 viewBox="0 0 512 512" style="enable-background:new 0 0 512 512;" xml:space="preserve">
<style type="text/css">
	.st0{fill:#FFFFFF;}
	.st1{fill:#0FECF4;}
</style>
<g id="Layer_4">
	<path class="st0" d="M106.9,310.6c-9.4,18.1-12.9,38.3-8.9,58.4c10.9,54.3,72.8,87.6,138.3,74.4c36.9-7.4,67-28,84.3-54.2
		l-67.9-8.5l81.1-64.7l63.1-50.3l22.6-18l88.9,165.2l-83.7-10.5c-20.2,49.2-70.2,89.9-134.3,102.8C196.6,523.8,107.7,476,92.1,398.2
		C86,367.9,91.9,337.5,106.9,310.6z"/>
</g>
<g id="Layer_2">
	<path class="st1" d="M313.6,298.4l-23.8,35.8l11.9,42.1h84.1v-43.4C385.8,332.9,385.8,316.2,313.6,298.4z M212.3,298.4
		c-64.2,14.9-70.8,31.3-70.8,31.3l1.3,46.6l82,2l12.5-43.5L212.3,298.4z M280.8,339h-34.6l-10.9,37.3h56.8L280.8,339z M263.2,307.4
		l-11.8,21h24.1L263.2,307.4z M307.8,278.8c-15.4,18.8-35.3,22.5-35.3,22.5l12.5,22.6l24.9-38.7L307.8,278.8z M219.1,278.8l-2.9,6.9
		l26,38.2l12.2-22.6C235.1,298.7,219.1,278.8,219.1,278.8z"/>
	<path class="st0" d="M321.1,230.3c-0.8,1.3-1.7,2.5-2.6,3.7c0-0.1,0-0.3,0.1-0.4C319.5,232.5,320.3,231.4,321.1,230.3z"/>
	<path class="st1" d="M329,197c0,9.1-1.3,17.8-3.7,25.9c0,0,0,0,0,0c-2.1,7.3-5.2,14.1-8.9,20.2c0,0,0,0,0,0
		c-5.2,17.5-18.7,43.9-53.7,48.8c0,0-49.4-5.1-56.1-69.1v0c-1.6-5.6-2.8-11.5-3.3-17.6c0,0,0,0,0,0c-0.2-2.7-0.3-5.4-0.3-8.2
		c0-35.8,20-65.9,47.1-74.5c0,0,0.1,0,0.1,0c5.2-1.5,10.7-2.4,16.4-2.4C301.1,120.5,329,154.8,329,197z"/>
</g>
<g id="Layer_3">
	<path class="st0" d="M403.7,200.7c9.4-18.1,12.9-38.3,8.9-58.4c-10.9-54.3-72.8-87.6-138.3-74.4c-36.9,7.4-67,28-84.3,54.2
		l67.9,8.5l-81.1,64.7l-63.1,50.3l-22.6,18L2.1,98.6l83.7,10.5C106,59.9,156,19.2,220.1,6.3C314-12.6,402.9,35.2,418.5,113.1
		C424.6,143.4,418.7,173.8,403.7,200.7z"/>
</g>
</svg>
