<?xml version="1.0" encoding="utf-8"?>
<!-- Generator: Adobe Illustrator 24.1.2, SVG Export Plug-In . SVG Version: 6.00 Build 0)  -->
<svg version="1.1" xmlns="http://www.w3.org/2000/svg" xmlns:xlink="http://www.w3.org/1999/xlink" x="0px" y="0px"
	 viewBox="0 0 512 512" style="enable-background:new 0 0 512 512;" xml:space="preserve">
<style type="text/css">
	.st0{fill:none;stroke:#FFFFFF;stroke-width:15;stroke-linecap:round;stroke-linejoin:round;stroke-miterlimit:10;}
	.st1{fill:none;stroke:#FFFFFF;stroke-width:7;stroke-linecap:round;stroke-linejoin:round;stroke-miterlimit:10;}
	.st2{fill:#FFFFFF;stroke:#FFFFFF;stroke-linecap:round;stroke-linejoin:round;stroke-miterlimit:10;}
	.st3{fill:#0FECF4;stroke:#FFFFFF;stroke-miterlimit:10;}
</style>
<g id="Layer_2">
</g>
<g id="Layer_3">
	<circle class="st0" cx="127.7" cy="116.1" r="73.3"/>
	<circle class="st1" cx="127.7" cy="116.1" r="57.2"/>
	<polyline class="st1" points="127.7,72 127.7,116.1 148.7,137.1 	"/>
	<line class="st2" x1="239.1" y1="280.3" x2="182.7" y2="239"/>
	<path class="st3" d="M446.1,481.4c13.4-20.2,21.3-44.4,21.3-70.4c0-70.3-56.9-127.2-127.2-127.2c-16.7,0-32.7,3.2-47.4,9.1v100.6
		l-62.9-46l-89.4-65.3L103,254.8l189.8-138.7v77.4c1.4,0,2.9-0.1,4.3-0.1c100.8,0,182.5,81.7,182.5,182.5
		C479.6,415.3,467.2,451.6,446.1,481.4z"/>
</g>
</svg>
